<svg id="Layer_1" data-name="Layer 1" xmlns="http://www.w3.org/2000/svg" xmlns:xlink="http://www.w3.org/1999/xlink" viewBox="0 0 643.63 467.5"><defs><style>.cls-1,.cls-10,.cls-11,.cls-12,.cls-13,.cls-6,.cls-7,.cls-8,.cls-9{fill:none;}.cls-2{fill:#fff;}.cls-3{clip-path:url(#clip-path);}.cls-16,.cls-4{fill:#dc2626;}.cls-4,.cls-5{fill-opacity:0.16;stroke-opacity:0.16;}.cls-10,.cls-4,.cls-9{stroke:#dc2626;}.cls-10,.cls-11,.cls-12,.cls-13,.cls-14,.cls-18,.cls-4,.cls-5,.cls-6,.cls-7,.cls-8,.cls-9{stroke-linejoin:round;}.cls-5{fill:#16a34a;}.cls-11,.cls-12,.cls-5{stroke:#16a34a;}.cls-18,.cls-6{stroke:#2563eb;}.cls-11,.cls-6,.cls-9{stroke-linecap:square;}.cls-6{stroke-width:2.8px;}.cls-7{stroke:#9ca3af;stroke-width:1.5px;stroke-dasharray:7.5 6;}.cls-8{stroke:#d1d5db;stroke-dasharray:2 3;}.cls-11,.cls-9{stroke-width:2.3px;}.cls-10,.cls-12{stroke-width:1.2px;stroke-dasharray:3.6 3.6;}.cls-13,.cls-14{stroke:#111827;stroke-linecap:round;stroke-width:1.9px;}.cls-14{fill:#111827;}.cls-15,.cls-18{fill:#2563eb;}.cls-17{fill:#15803d;}</style><clipPath id="clip-path" transform="translate(0 42.19)"><rect class="cls-1" x="7.2" y="18.23" width="621.76" height="399.89"/></clipPath></defs><g id="figure_1" data-name="figure 1"><g id="patch_1" data-name="patch 1"><path class="cls-2" d="M0,425.32H643.63V0H0Z" transform="translate(0 42.19)"/></g><g id="axes_1" data-name="axes 1"><g id="FillBetweenPolyCollection_1" data-name="FillBetweenPolyCollection 1"><g class="cls-3"><path id="m1994e1a0f2" class="cls-4" d="M184.7,358.55v.23H588.2v-.23h0l-1.35,0-1.35,0-1.35,0-1.35,0-1.35,0-1.35,0-1.35,0-1.35,0-1.35,0-1.35,0-1.35,0-1.35,0-1.35,0-1.35,0-1.34-.05-1.35-.05-1.35,0-1.35-.06-1.35-.06-1.35-.07-1.35-.06-1.35-.07-1.35-.08-1.35-.08-1.35-.09-1.35-.09-1.35-.09-1.35-.1-1.35-.11-1.35-.11-1.35-.12-1.35-.13-1.35-.13-1.35-.14-1.34-.14-1.35-.16-1.35-.16-1.35-.17-1.35-.18-1.35-.18-1.35-.2-1.35-.21-1.35-.21-1.35-.23-1.35-.23-1.35-.25-1.35-.26-1.35-.27-1.35-.28-1.35-.29-1.35-.3-1.35-.32-1.35-.33-1.35-.35-1.34-.36-1.35-.37-1.35-.38-1.35-.4-1.35-.42-1.35-.43-1.35-.45-1.35-.46-1.35-.47-1.35-.5-1.35-.51-1.35-.52-1.35-.55-1.35-.56-1.35-.58-1.35-.59-1.35-.61-1.35-.63-1.35-.64-1.35-.67-1.34-.68-1.35-.7-1.35-.71-1.35-.73-1.35-.75-1.35-.77-1.35-.78-1.35-.8-1.35-.82-1.35-.83-1.35-.85-1.35-.86-1.35-.88-1.35-.89-1.35-.9-1.35-.92-1.35-.93-1.35-.95-1.35-.95-1.35-1-1.34-1-1.35-1-1.35-1-1.35-1-1.35-1-1.35-1-1.35-1-1.35-1-1.35-1-1.35-1-1.35-1-1.35-1-1.35-1-1.35-1-1.35-1-1.35-1-1.35-1-1.35-1-1.35-1-1.34-1-1.35-1-1.35-1-1.35-1-1.35-1-1.35-.94-1.35-.92-1.35-.91-1.35-.89-1.35-.87-1.35-.84-1.35-.83-1.35-.8-1.35-.78-1.35-.76-1.35-.73-1.35-.7-1.35-.67-1.35-.64-1.35-.62-1.34-.58-1.35-.55-1.35-.51-1.35-.49-1.35-.45-1.35-.41-1.35-.38-1.35-.34-1.35-.31-1.35-.27-1.35-.23-1.35-.19-1.35-.16-1.35-.11-1.35-.08-1.35,0h-1.35l-1.35,0-1.35.08-1.35.11-1.34.16-1.35.19-1.35.23-1.35.27L375,285l-1.35.34-1.35.38-1.35.41-1.35.45-1.35.49-1.35.51-1.35.55-1.35.58-1.35.62-1.35.64-1.35.67-1.35.7-1.35.73-1.35.76-1.35.78-1.34.8-1.35.83-1.35.84-1.35.87-1.35.89-1.35.91-1.35.92-1.35.94-1.35,1-1.35,1-1.35,1-1.35,1-1.35,1-1.35,1-1.35,1-1.35,1-1.35,1-1.35,1-1.35,1-1.35,1-1.34,1-1.35,1-1.35,1-1.35,1-1.35,1-1.35,1-1.35,1-1.35,1-1.35,1-1.35,1-1.35,1-1.35,1-1.35,1-1.35.95-1.35.95-1.35.93-1.35.92-1.35.9-1.35.89-1.35.88-1.34.86-1.35.85-1.35.83-1.35.82-1.35.8-1.35.78-1.35.77-1.35.75-1.35.73-1.35.71-1.35.7-1.35.68-1.35.67-1.35.64-1.35.63-1.35.61-1.35.59-1.35.58-1.35.56-1.34.55-1.35.52-1.35.51-1.35.5-1.35.47-1.35.46-1.35.45-1.35.43-1.35.42-1.35.4-1.35.38-1.35.37-1.35.36-1.35.35-1.35.33-1.35.32-1.35.3-1.35.29-1.35.28-1.35.27-1.34.26-1.35.25-1.35.23-1.35.23-1.35.21-1.35.21-1.35.2-1.35.18-1.35.18-1.35.17-1.35.16-1.35.16-1.35.14-1.35.14-1.35.13-1.35.13-1.35.12-1.35.11-1.35.11-1.35.1-1.34.09-1.35.09-1.35.09-1.35.08-1.35.08-1.35.07-1.35.06-1.35.07-1.35.06-1.35.06-1.35,0-1.35.05-1.35.05-1.35,0-1.35,0-1.35,0-1.35,0-1.35,0-1.35,0-1.35,0-1.34,0-1.35,0-1.35,0-1.35,0-1.35,0-1.35,0Z" transform="translate(0 42.19)"/></g></g><g id="FillBetweenPolyCollection_2" data-name="FillBetweenPolyCollection 2"><g class="cls-3"><path id="m52dc4d6b34" class="cls-5" d="M128.41,357.15h.05V-41.69h0V81.25l0,1V85l0,.94v1.87l0,.93v.93l0,.93,0,.92v.92l0,.92,0,.91,0,.91v.91l0,.91,0,.9,0,.9,0,.9,0,.89,0,.9,0,.88,0,.89,0,.89,0,.88,0,.88,0,.87,0,.88,0,.87,0,.87,0,.86,0,.86,0,.87,0,.85,0,.86,0,.85,0,.85,0,.85,0,.84,0,.85,0,.84,0,.83,0,.84,0,.83,0,.83,0,.83,0,.82,0,.83,0,.82-.05.81,0,.82,0,.81-.06.81,0,.81-.06.8-.06.81-.06.8-.06.79-.06.8-.06.79-.07.79-.07.79-.07.79-.07.78-.07.78-.07.78-.08.78-.08.77-.08.77-.08.77-.08.77-.09.77-.08.76-.09.76-.1.76-.09.75-.09.76-.1.75-.1.75-.11.74-.1.75-.11.74-.11.74-.11.74-.11.73-.12.73-.12.73-.12.73-.12.73-.13.72-.13.73-.13.72-.14.71-.13.72-.14.71-.15.71-.14.71-.15.71-.15.71-.16.7-.16.7-.16.7-.16.69-.17.7-.17.69-.17.69-.18.69-.18.69-.18.68-.19.68-.19.68-.19.68-.2.67-.2.68-.21.67-.2.67-.21.67-.22.66-.22.67-.22.66-.23.66-.23.65-.23.66-.24.65L117,181l-.24.64-.25.65-.26.65-.25.64-.26.64-.27.64-.27.64-.27.64-.28.63-.28.63-.29.63-.29.63-.29.63-.3.62-.3.63-.31.62-.31.62-.31.61-.32.62-.33.61-.32.61-.34.61-.33.61-.34.61-.35.6-.35.6-.35.6-.36.6-.36.6-.37.6-.37.59-.38.59-.38.59-.38.59-.39.58-.39.59-.4.58-.4.58-.4.58-.41.58-.42.57-.42.58-.42.57-.42.57-.43.57-.44.57-.44.56-.44.57-.45.56-.45.56-.45.56-.46.55-.46.56-.47.55-.47.55-.47.55-.48.55-.48.55-.48.54-.49.55-.49.54-.49.54-.5.54-.5.54-.5.53-.51.54-.51.53-.51.53-.52.53-.52.52-.52.53-.52.52-.53.53-.53.52-.53.52-.54.52-.53.51-.54.52-.54.51-.54.51-.55.51-.54.51-.55.51-.55.5-.55.51-.55.5-.55.5-.56.5-.55.5-.56.49-.56.5-.55.49-.56.49-.56.49-.56.49-.56.49-.56.49-.56.48-.56.48-.56.49-.56.48-.55.48-.56.47-.56.48-.55.47-.56.48-.55.47L69,241l-.55.47-.55.46-.55.47-.54.46-.55.47-.54.46-.54.46-.53.46-.54.46-.53.45-.53.46-.52.45L62,247l-.52.45-.52.45-.51.45-.51.45-.5.44-.5.45-.5.44-.49.44-.49.44-.48.44-.48.44-.47.43-.47.44-.47.43-.45.43-.46.43-.44.43-.45.43-.43.43-.43.42-.43.43-.42.42-.41.42-.4.42-.4.42-.39.42-.39.41-.38.42-.37.41-.36.42-.36.41-.35.41-.35.41-.33.41-.33.4-.32.41-.31.4-.3.41-.3.4-.29.4-.28.4-.27.39-.26.4-.26.4-.24.39-.24.4-.23.39-.22.39-.21.39-.2.39-.19.38-.19.39-.17.39-.17.38-.15.38-.15.38-.14.38-.12.38-.12.38-.11.38-.1.38-.09.37-.08.37-.07.38-.07.37,0,.37,0,.37,0,.37,0,.36,0,.37v1.09l0,.36,0,.36,0,.36.05.36.07.36.07.35.08.36.1.35.1.35.11.35.12.36.13.34.14.35.15.35.16.35.17.34.18.35.19.34.19.34.21.34.21.34.22.34.23.34.24.34.25.33.26.34.26.33.28.34.28.33.29.33.3.33.3.33.32.33.32.32.33.33.34.33.34.32.36.32.36.33.36.32.38.32.38.32.39.31.39.32.4.32.41.31.41.32.42.31.43.31.43.32.44.31.44.31.45.31.46.3.46.31.46.31.47.3.48.31.48.3.48.3.49.3.49.3.5.3.5.3.51.3.51.3.51.29.52.3.52.29.52.3.53.29.52.29.54.29.53.29.54.29.54.29.54.29.54.28.55.29.55.28.55.29.55.28.55.28.55.28.56.28.55.28.56.28.56.28.56.28.55.27.56.28.56.27.56.28.56.27.56.27.56.27.56.27.56.27.55.27.56.27.56.27.55.26.56.27.55.26.55.27.55.26.55.26.55.26.54.26.54.26.55.26.54.26.53.26.54.26.53.25.53.26.53.25.53.26.52.25L90,313l.52.25.51.25.51.25.51.25.51.25.5.25.5.25.5.24.49.25.49.24.49.25.48.24.48.24.48.24.47.24.47.24.46.24.46.24.46.24.45.24.45.24.45.23.44.24.43.23.44.24.43.23.42.23.42.23.42.23.41.23.41.23.4.23.4.23.4.23.39.23.39.22.38.23.38.22.37.23.37.22.37.22.36.23.36.22.35.22.35.22.34.22.34.22.34.21.33.22.32.22.33.21.31.22.32.22.31.21.3.21.3.22.3.21.29.21.29.21.29.21.28.21.27.21.27.21.27.21.27.2.26.21.25.21.25.2.25.21.25.2.24.2.23.21.23.2.23.2.23.2.22.2.22.2.21.2.21.2.21.2.2.2.2.19.2.2.19.2.19.19.18.19.19.2.18.19.17.19.17.2.17.19.17.19.16.19.16.19.16.19.15.19.15.19.15.18.15.19.14.19.14.18.14.19.13.18.13.19.13.18.13.18.12.19.12.18.12.18.11.18.12.18.11.18.11.18.1.18.11.18.1.17.1.18.09.18.1.17.09.18.09.18.09.17.09.17.08.18.09.17.08.17.08.17.07.18.08.17.07.17.08.17.07.17.06.16.07.17.07.17.06.17.06.16.06.17.06.17.06.16.06.17,0,.16.05.16.06.17.05.16,0,.16,0,.16,0,.16,0,.17,0,.16.05.16,0,.16,0,.15,0,.16,0,.16,0,.16,0,.15,0,.16,0,.16,0,.15,0,.16,0,.15,0,.16,0,.15,0,.15,0,.16,0,.15,0,.15,0,.15,0,.15,0,.15,0,.15,0,.15,0,.15,0,.15,0,.15,0,.15,0,.14,0,.15,0,.15,0,.14,0,.15,0,.14v.15l0,.14v.15l0,.14,0,.14v.29l0,.14v.28l0,.14v7.22Z" transform="translate(0 42.19)"/></g></g><g id="line2d_1" data-name="line2d 1"><g class="cls-3"><path class="cls-6" d="M128.46,358.78l16.11-3,15-3.05,15-3.28,13.82-3.24,13.81-3.47L215.93,339l12.66-3.63,12.66-3.85,12.66-4.1,11.51-3.95,11.51-4.18,11.51-4.41L300,310.19l10.35-4.44,10.36-4.66L331,296.2,341.38,291l10.36-5.41,9.21-5.05,9.2-5.28,9.21-5.52,9.21-5.77,9.21-6,9.2-6.31,9.21-6.6,9.21-6.89,9.21-7.22,8.05-6.58,8.06-6.84,8.06-7.12,8.05-7.4,8.06-7.69,8.06-8L491,179l8.06-8.65,8.06-9,8-9.35,8.06-9.72,8.06-10.11,8.05-10.52,8.06-10.93,8.06-11.37,6.9-10.1,6.91-10.45,6.9-10.8,6.91-11.17,4.6-7.66h0" transform="translate(0 42.19)"/></g></g><g id="line2d_2" data-name="line2d 2"><g class="cls-3"><path class="cls-7" d="M386.45,358.78V265.36" transform="translate(0 42.19)"/></g></g><g id="line2d_3" data-name="line2d 3"><g class="cls-3"><path class="cls-7" d="M128.46,265.36h258" transform="translate(0 42.19)"/></g></g><g id="line2d_4" data-name="line2d 4"><g class="cls-3"><path class="cls-8" d="M327.11,358.78V298.07" transform="translate(0 42.19)"/></g></g><g id="line2d_5" data-name="line2d 5"><g class="cls-3"><path class="cls-8" d="M128.46,298.07H327.11" transform="translate(0 42.19)"/></g></g><g id="line2d_6" data-name="line2d 6"><g class="cls-3"><path class="cls-8" d="M445.79,358.78v-137" transform="translate(0 42.19)"/></g></g><g id="line2d_7" data-name="line2d 7"><g class="cls-3"><path class="cls-8" d="M128.46,221.75H445.79" transform="translate(0 42.19)"/></g></g><g id="line2d_8" data-name="line2d 8"><g class="cls-3"><path class="cls-9" d="M184.7,358.51l14.84-.3,10.8-.4,9.45-.54,8.09-.67,6.75-.74,6.75-.94,5.4-.94,5.39-1.11,5.4-1.31L263,350l5.4-1.77,5.4-2,5.39-2.3,5.4-2.57,5.4-2.86,5.4-3.13,5.39-3.4,5.4-3.63,6.75-4.83,8.1-6.11,20.24-15.48,5.4-3.83,5.4-3.55,4-2.44,4.05-2.21,4.05-1.95,4.05-1.66,2.7-.95,2.7-.8,2.7-.65,2.7-.51,2.69-.35,2.7-.2,2.7,0,2.7.12,2.7.28,2.7.42,2.7.58,2.7.73,2.7.88,4.05,1.57,4,1.85,4,2.13,4.05,2.36,4.05,2.57L429,300l6.74,5,9.45,7.26,12.15,9.32,6.74,4.94,5.4,3.74,5.4,3.52,5.4,3.27,5.4,3,5.39,2.72,5.4,2.44,5.4,2.16,5.4,1.9,5.4,1.65,5.39,1.42,5.4,1.21,5.4,1,5.4.85,6.75.86,6.74.67,8.1.6,9.45.48,10.79.35,12.15.23h0" transform="translate(0 42.19)"/></g></g><g id="line2d_9" data-name="line2d 9"><g class="cls-3"><path class="cls-10" d="M386.45,358.78V271.06" transform="translate(0 42.19)"/></g></g><g id="line2d_10" data-name="line2d 10"><g class="cls-3"><path class="cls-11" d="M128.41,357.15l-.18-5.57-.34-3.65-.48-2.86-.65-2.54-.77-2.15-1-2.07-1.14-2-1.45-2-1.61-1.9-1.95-2-2.31-2-2.7-2.08L110.41,324l-4-2.45-4.93-2.76L95,315.44l-9.27-4.52-15.52-7.54L63.72,300l-5.14-3-3.81-2.43-3.07-2.17-2.76-2.22-2.09-1.95-1.81-2-1.52-2-1-1.7-.8-1.74L41.14,279l-.32-1.79-.08-1.81.16-1.84.41-1.87.64-1.9.87-1.92,1.34-2.35,1.66-2.39,1.94-2.44,2.6-2.9,3.37-3.39,4.21-3.91,6.15-5.38L80.68,230.8l5.46-5.08,4.74-4.7,4-4.29,3.8-4.4,3.13-3.93,2.92-4,2.72-4.1,2.51-4.19,2.29-4.28,2.09-4.38,1.88-4.46,1.69-4.56,1.51-4.66,1.51-5.45,1.3-5.58,1.11-5.72,1.05-6.59.86-6.78.77-7.76.66-8.8.57-10.79.45-13,.34-16.38.23-23.28.13-38.24,0-26.39h0" transform="translate(0 42.19)"/></g></g><g id="line2d_11" data-name="line2d 11"><g class="cls-3"><path class="cls-12" d="M128.46,265.36H44.29" transform="translate(0 42.19)"/></g></g><g id="patch_2" data-name="patch 2"><path class="cls-13" d="M130.46,358.78H614.52" transform="translate(0 42.19)"/><path class="cls-14" d="M610.52,356.78l4,2-4,2Z" transform="translate(0 42.19)"/></g><g id="patch_3" data-name="patch 3"><path class="cls-13" d="M128.46,356.78V32.67" transform="translate(0 42.19)"/><path class="cls-14" d="M126.46,36.67l2-4,2,4Z" transform="translate(0 42.19)"/></g><g id="text_1" data-name="text 1"><path id="Cmmi10-78" d="M626.39,364.59a1.63,1.63,0,0,0,1,.27,1.37,1.37,0,0,0,1.1-.6,3.38,3.38,0,0,0,.66-1.31l.91-3.55a7.48,7.48,0,0,0,.21-1.32,1.35,1.35,0,0,0-.28-.86.9.9,0,0,0-.77-.38,2,2,0,0,0-1.19.4,3.5,3.5,0,0,0-.94,1,4.16,4.16,0,0,0-.54,1.23.15.15,0,0,1-.16.13h-.24c-.1,0-.16-.06-.16-.19v-.05a4.63,4.63,0,0,1,.67-1.45,3.79,3.79,0,0,1,1.14-1.15,2.68,2.68,0,0,1,1.46-.44,2.35,2.35,0,0,1,1.32.39,2.08,2.08,0,0,1,.83,1.06,3.37,3.37,0,0,1,.88-1,1.82,1.82,0,0,1,1.16-.42,2.76,2.76,0,0,1,.88.15,1.79,1.79,0,0,1,.74.46,1.12,1.12,0,0,1,.28.79,1.28,1.28,0,0,1-.33.87,1.08,1.08,0,0,1-.83.37.73.73,0,0,1-.54-.21.7.7,0,0,1-.21-.52,1,1,0,0,1,.28-.73,1.14,1.14,0,0,1,.69-.38,1.56,1.56,0,0,0-1-.29,1.39,1.39,0,0,0-1.12.6,3.56,3.56,0,0,0-.67,1.33l-.88,3.53a5.51,5.51,0,0,0-.21,1.32,1.4,1.4,0,0,0,.28.88.93.93,0,0,0,.77.36,2.18,2.18,0,0,0,1.67-.82,4.14,4.14,0,0,0,1-1.81.14.14,0,0,1,.15-.12h.25a.17.17,0,0,1,.12.05.16.16,0,0,1,0,.12.07.07,0,0,1,0,.06,4.34,4.34,0,0,1-1.19,2.12,2.79,2.79,0,0,1-2.05.93,2.33,2.33,0,0,1-1.32-.39,2.22,2.22,0,0,1-.84-1.07,3.35,3.35,0,0,1-.86,1,1.88,1.88,0,0,1-1.18.44,2.81,2.81,0,0,1-.88-.15,1.73,1.73,0,0,1-.74-.46,1.15,1.15,0,0,1-.28-.8,1.32,1.32,0,0,1,.32-.85,1,1,0,0,1,.82-.39.83.83,0,0,1,.56.2.68.68,0,0,1,.22.53,1,1,0,0,1-.28.73A1.17,1.17,0,0,1,626.39,364.59Z" transform="translate(0 42.19)"/></g><g id="text_2" data-name="text 2"><path id="Cmmi10-79" d="M110.85,25.06a1.55,1.55,0,0,0,1.46.72,2.27,2.27,0,0,0,1.64-.67,4.85,4.85,0,0,0,1.12-1.6,11.27,11.27,0,0,0,.66-1.93,2.74,2.74,0,0,1-1.92.84,3.07,3.07,0,0,1-1.35-.27,2.08,2.08,0,0,1-.87-.82,2.67,2.67,0,0,1-.3-1.31,5.81,5.81,0,0,1,.17-1.35,15.81,15.81,0,0,1,.5-1.53l.55-1.47a3.88,3.88,0,0,0,.26-1.2c0-.4-.14-.6-.44-.6a1.49,1.49,0,0,0-1.3.82,6,6,0,0,0-.76,1.82.16.16,0,0,1-.16.13h-.24c-.11,0-.16-.07-.16-.19v-.06a6.39,6.39,0,0,1,1-2.11,2,2,0,0,1,1.68-.92,1.69,1.69,0,0,1,1.21.46,1.58,1.58,0,0,1,.49,1.2,2.13,2.13,0,0,1-.16.78c-.06.16-.2.51-.4,1.06s-.37,1-.49,1.36-.2.71-.27,1.05a5.24,5.24,0,0,0-.1,1,2.09,2.09,0,0,0,.28,1.12,1,1,0,0,0,.9.46,2.72,2.72,0,0,0,2.22-1.51l1.52-6.16a.83.83,0,0,1,.31-.46.88.88,0,0,1,.53-.19.6.6,0,0,1,.42.16.51.51,0,0,1,.18.41c0,.07,0,.13,0,.15l-2,8a5.79,5.79,0,0,1-2.66,3.47,4,4,0,0,1-2.07.58,2.66,2.66,0,0,1-1-.21,1.85,1.85,0,0,1-.82-.6,1.52,1.52,0,0,1,0-1.88,1,1,0,0,1,.86-.4.8.8,0,0,1,.54.2.66.66,0,0,1,.22.52,1.09,1.09,0,0,1-.35.8,1.06,1.06,0,0,1-.79.34h-.08Z" transform="translate(0 42.19)"/></g><g id="text_3" data-name="text 3"><path id="Cmmi10-79-2" data-name="Cmmi10-79" class="cls-15" d="M502.32,189.09a1.46,1.46,0,0,0,1.39.69,2.17,2.17,0,0,0,1.55-.64,4.91,4.91,0,0,0,1.07-1.52,10.39,10.39,0,0,0,.62-1.83,2.61,2.61,0,0,1-1.83.79,3,3,0,0,1-1.28-.25,2,2,0,0,1-.82-.78,2.54,2.54,0,0,1-.29-1.25,5.16,5.16,0,0,1,.17-1.27,13.47,13.47,0,0,1,.47-1.46l.52-1.4a3.42,3.42,0,0,0,.25-1.14c0-.38-.14-.57-.41-.57a1.42,1.42,0,0,0-1.24.78,5.55,5.55,0,0,0-.72,1.73.16.16,0,0,1-.16.12h-.22c-.11,0-.16-.06-.16-.18v0a6,6,0,0,1,.93-2,1.94,1.94,0,0,1,1.6-.88,1.62,1.62,0,0,1,1.15.45,1.5,1.5,0,0,1,.47,1.13,2.06,2.06,0,0,1-.16.74c-.06.16-.18.5-.38,1s-.35.94-.46,1.28-.19.68-.26,1a5.34,5.34,0,0,0-.1,1,2,2,0,0,0,.27,1.07.94.94,0,0,0,.86.43,2.61,2.61,0,0,0,2.11-1.43l1.44-5.86a.77.77,0,0,1,.29-.43.83.83,0,0,1,.5-.18.61.61,0,0,1,.41.15.51.51,0,0,1,.17.39.49.49,0,0,1,0,.15l-1.88,7.56a5.22,5.22,0,0,1-.92,1.86,5.53,5.53,0,0,1-1.61,1.44,3.89,3.89,0,0,1-2,.54,2.8,2.8,0,0,1-1-.19,1.89,1.89,0,0,1-.78-.57,1.47,1.47,0,0,1-.29-.9,1.39,1.39,0,0,1,.3-.89,1,1,0,0,1,.82-.38.73.73,0,0,1,.52.19.65.65,0,0,1,.2.49,1.05,1.05,0,0,1-.32.76,1,1,0,0,1-.76.33l0,0Z" transform="translate(0 42.19)"/><path id="Cmr10-3d" class="cls-15" d="M514.8,183.85a.32.32,0,0,1-.26-.12.39.39,0,0,1-.1-.26.36.36,0,0,1,.1-.27.31.31,0,0,1,.26-.11h11.93a.3.3,0,0,1,.24.11.36.36,0,0,1,.1.27.39.39,0,0,1-.1.26.31.31,0,0,1-.24.12Zm0-3.7a.31.31,0,0,1-.26-.11.36.36,0,0,1-.1-.27.35.35,0,0,1,.1-.25.3.3,0,0,1,.26-.13h11.93a.3.3,0,0,1,.24.13.35.35,0,0,1,.1.25.36.36,0,0,1-.1.27.3.3,0,0,1-.24.11Z" transform="translate(0 42.19)"/><path id="Cmmi10-67" class="cls-15" d="M531.74,189.09a1.16,1.16,0,0,1,.31-.81,1,1,0,0,1,.78-.35.7.7,0,0,1,.51.19.64.64,0,0,1,.21.49,1,1,0,0,1-.19.62,1.12,1.12,0,0,1-.5.39,6,6,0,0,0,1.59.16,2.3,2.3,0,0,0,1.6-.68,3.17,3.17,0,0,0,1-1.55l.54-2.23a3,3,0,0,1-2.14,1.05A2.34,2.34,0,0,1,534,186a2.63,2.63,0,0,1-.88-1.11,3.54,3.54,0,0,1-.31-1.48,5.12,5.12,0,0,1,.36-1.82,6.66,6.66,0,0,1,1-1.78,5.35,5.35,0,0,1,1.48-1.3,3.49,3.49,0,0,1,1.76-.49,1.8,1.8,0,0,1,1,.31,2.16,2.16,0,0,1,.7.82c.12-.5.4-.75.82-.75a.57.57,0,0,1,.4.15.46.46,0,0,1,.17.38V179l0,.06-2.17,8.63a2.81,2.81,0,0,1-.55,1.09,3.66,3.66,0,0,1-.93.82,4.63,4.63,0,0,1-1.18.51,4.24,4.24,0,0,1-1.23.19,7.47,7.47,0,0,1-1.89-.21A.93.93,0,0,1,531.74,189.09Zm3.7-3.21c.81,0,1.6-.56,2.39-1.67l1-4.15a2.56,2.56,0,0,0-.52-1.13,1.24,1.24,0,0,0-1-.47,1.78,1.78,0,0,0-1.2.52,4.43,4.43,0,0,0-.93,1.23,10.18,10.18,0,0,0-.68,2,8.7,8.7,0,0,0-.33,2,2.25,2.25,0,0,0,.3,1.16A1,1,0,0,0,535.44,185.88Z" transform="translate(0 42.19)"/><path id="Cmr10-28" class="cls-15" d="M546.42,191.08a9.15,9.15,0,0,1-1.82-1.91,11.25,11.25,0,0,1-1.26-2.31,13.66,13.66,0,0,1-.72-2.56,15.2,15.2,0,0,1,0-5.38,13.06,13.06,0,0,1,.73-2.57,11.79,11.79,0,0,1,1.27-2.31,8.93,8.93,0,0,1,1.8-1.88s0,0,.09,0h.18a.14.14,0,0,1,.1,0,.17.17,0,0,1,.05.12.16.16,0,0,1,0,.12,9.12,9.12,0,0,0-1.54,2,10.25,10.25,0,0,0-1,2.21,13.83,13.83,0,0,0-.54,2.43,20.12,20.12,0,0,0-.17,2.62c0,4,1.08,7.08,3.23,9.18a.18.18,0,0,1,.06.15.21.21,0,0,1-.05.11s-.07.06-.1.06h-.18C546.45,191.12,546.42,191.11,546.42,191.08Z" transform="translate(0 42.19)"/><path id="Cmmi10-78-2" data-name="Cmmi10-78" class="cls-15" d="M549.39,185.82a1.47,1.47,0,0,0,1,.26,1.31,1.31,0,0,0,1-.57,3.24,3.24,0,0,0,.63-1.24l.86-3.37a6.65,6.65,0,0,0,.2-1.26,1.3,1.3,0,0,0-.26-.82.87.87,0,0,0-.74-.36,1.92,1.92,0,0,0-1.13.38,3.28,3.28,0,0,0-.89,1,4,4,0,0,0-.51,1.17.16.16,0,0,1-.15.12h-.23q-.15,0-.15-.18v0a4.49,4.49,0,0,1,.63-1.38,3.77,3.77,0,0,1,1.09-1.09,2.48,2.48,0,0,1,1.38-.42,2.19,2.19,0,0,1,1.25.38,2,2,0,0,1,.8,1,3.16,3.16,0,0,1,.83-1,1.73,1.73,0,0,1,1.11-.41,2.47,2.47,0,0,1,.83.15,1.62,1.62,0,0,1,.7.44,1.05,1.05,0,0,1,.27.74,1.24,1.24,0,0,1-.31.83,1,1,0,0,1-.8.35.69.69,0,0,1-.51-.2.66.66,0,0,1-.2-.49,1,1,0,0,1,.27-.7,1.12,1.12,0,0,1,.66-.36,1.51,1.51,0,0,0-1-.27A1.32,1.32,0,0,0,555,179a3.58,3.58,0,0,0-.64,1.26l-.83,3.36a5,5,0,0,0-.21,1.25,1.29,1.29,0,0,0,.28.84.87.87,0,0,0,.73.34,2.07,2.07,0,0,0,1.58-.78,3.93,3.93,0,0,0,.93-1.72.13.13,0,0,1,.15-.11h.23a.13.13,0,0,1,.12.05.16.16,0,0,1,0,.11s0,0,0,.06a4.31,4.31,0,0,1-1.13,2,2.67,2.67,0,0,1-2,.88,2.22,2.22,0,0,1-1.26-.37,2,2,0,0,1-.79-1,3.22,3.22,0,0,1-.83,1,1.72,1.72,0,0,1-1.11.41,2.55,2.55,0,0,1-.84-.14,1.62,1.62,0,0,1-.7-.44,1.08,1.08,0,0,1-.27-.75,1.19,1.19,0,0,1,.31-.81,1,1,0,0,1,.78-.37.77.77,0,0,1,.53.19.64.64,0,0,1,.21.5,1,1,0,0,1-.27.69A1.12,1.12,0,0,1,549.39,185.82Z" transform="translate(0 42.19)"/><path id="Cmr10-29" class="cls-15" d="M560,191.12a.15.15,0,0,1-.17-.17.21.21,0,0,1,0-.12q3.25-3.17,3.25-9.21c0-4-1.07-7.08-3.21-9.18a.16.16,0,0,1-.07-.15.13.13,0,0,1,0-.12.17.17,0,0,1,.12,0h.17a.1.1,0,0,1,.09,0,9.39,9.39,0,0,1,2.28,2.61,12.09,12.09,0,0,1,1.33,3.29,15.14,15.14,0,0,1,.42,3.56,15.54,15.54,0,0,1-.23,2.65,13.32,13.32,0,0,1-.72,2.57,11,11,0,0,1-1.26,2.34,8.84,8.84,0,0,1-1.82,1.9.1.1,0,0,1-.09,0Z" transform="translate(0 42.19)"/></g><g id="text_4" data-name="text 4"><path id="Cmmi10-b9" class="cls-16" d="M377.32,397.15c0-.07,0-.12,0-.14L380,386.38a.76.76,0,0,1,.29-.41.71.71,0,0,1,.47-.16.56.56,0,0,1,.38.14.44.44,0,0,1,.16.36v.08a.64.64,0,0,1,0,.07l-1.06,4.21A6.19,6.19,0,0,0,380,392a1.81,1.81,0,0,0,.31,1.1,1.1,1.1,0,0,0,1,.43,2.78,2.78,0,0,0,2.3-1.63l0,0v0l1.3-5.22a.74.74,0,0,1,.28-.4.76.76,0,0,1,.48-.18.57.57,0,0,1,.37.14.47.47,0,0,1,.16.37c0,.07,0,.12,0,.14l-1.29,5.19a4,4,0,0,0-.13.88c0,.51.18.77.53.77s.66-.23.85-.69a10.34,10.34,0,0,0,.49-1.68.16.16,0,0,1,.15-.11H387a.14.14,0,0,1,.12.06.21.21,0,0,1,.05.12,10.42,10.42,0,0,1-.69,2,1.27,1.27,0,0,1-1.22.76,1.7,1.7,0,0,1-1.05-.35,1.59,1.59,0,0,1-.61-.92,3.63,3.63,0,0,1-1.05.91,2.42,2.42,0,0,1-1.27.36,2.68,2.68,0,0,1-1.76-.53l-.92,3.64a.65.65,0,0,1-.26.41.81.81,0,0,1-.48.16.59.59,0,0,1-.38-.14A.44.44,0,0,1,377.32,397.15Z" transform="translate(0 42.19)"/><path id="Cmmi10-78-3" data-name="Cmmi10-78" class="cls-16" d="M388.64,396.46a1,1,0,0,0,.63.17.87.87,0,0,0,.69-.37,2.15,2.15,0,0,0,.41-.83l.58-2.24a4.44,4.44,0,0,0,.13-.83.89.89,0,0,0-.17-.54.58.58,0,0,0-.49-.24,1.23,1.23,0,0,0-.75.25,2.13,2.13,0,0,0-.59.64,2.49,2.49,0,0,0-.34.77c0,.06-.05.08-.1.08h-.15c-.07,0-.1,0-.1-.11v0a3.08,3.08,0,0,1,.41-.91,2.54,2.54,0,0,1,.73-.73,1.67,1.67,0,0,1,.91-.27,1.53,1.53,0,0,1,.84.24,1.38,1.38,0,0,1,.52.67,2.32,2.32,0,0,1,.55-.65,1.21,1.21,0,0,1,.74-.26,1.81,1.81,0,0,1,.55.09,1.13,1.13,0,0,1,.46.29.73.73,0,0,1,.18.5.81.81,0,0,1-.21.55.67.67,0,0,1-.52.23.46.46,0,0,1-.48-.46.68.68,0,0,1,.19-.46.74.74,0,0,1,.43-.24,1,1,0,0,0-.63-.18.88.88,0,0,0-.7.38,2.25,2.25,0,0,0-.42.83l-.56,2.23a3.38,3.38,0,0,0-.13.83.85.85,0,0,0,.18.55.56.56,0,0,0,.48.23,1.38,1.38,0,0,0,1.06-.52,2.54,2.54,0,0,0,.61-1.14.1.1,0,0,1,.1-.07h.15a.1.1,0,0,1,.08,0,.11.11,0,0,1,0,.08.08.08,0,0,1,0,0,2.82,2.82,0,0,1-.75,1.33,1.76,1.76,0,0,1-1.29.59,1.53,1.53,0,0,1-.84-.25,1.36,1.36,0,0,1-.52-.68,2,2,0,0,1-.55.65,1.2,1.2,0,0,1-.74.28,2,2,0,0,1-.56-.1,1,1,0,0,1-.46-.29.71.71,0,0,1-.18-.5.8.8,0,0,1,.21-.54.65.65,0,0,1,.51-.24.51.51,0,0,1,.35.12.43.43,0,0,1,.15.33.69.69,0,0,1-.18.47A.74.74,0,0,1,388.64,396.46Z" transform="translate(0 42.19)"/></g><g id="text_6" data-name="text 6"><path id="Cmmi10-78-4" data-name="Cmmi10-78" class="cls-16" d="M508.88,286.09a1.14,1.14,0,0,0,.74.21,1,1,0,0,0,.83-.45,2.56,2.56,0,0,0,.49-1l.68-2.66a5.23,5.23,0,0,0,.16-1,1,1,0,0,0-.2-.65.72.72,0,0,0-.59-.28,1.51,1.51,0,0,0-.89.3,2.64,2.64,0,0,0-.7.75,3.44,3.44,0,0,0-.41.93c0,.06-.05.1-.11.1h-.19c-.07,0-.11-.05-.11-.14v-.05a3.48,3.48,0,0,1,.49-1.08,2.82,2.82,0,0,1,.86-.86,2,2,0,0,1,1.09-.33,1.69,1.69,0,0,1,1,.29,1.52,1.52,0,0,1,.63.8,2.5,2.5,0,0,1,.66-.78,1.35,1.35,0,0,1,.87-.31,1.91,1.91,0,0,1,.66.11,1.3,1.3,0,0,1,.55.35.83.83,0,0,1,.21.58,1,1,0,0,1-.24.66.83.83,0,0,1-.63.27.57.57,0,0,1-.4-.15.5.5,0,0,1-.16-.39.81.81,0,0,1,.21-.55.87.87,0,0,1,.52-.28,1.14,1.14,0,0,0-.75-.22,1.06,1.06,0,0,0-.84.45,2.85,2.85,0,0,0-.5,1l-.66,2.65a4.35,4.35,0,0,0-.16,1,1,1,0,0,0,.22.65.69.69,0,0,0,.57.28,1.67,1.67,0,0,0,1.26-.62,3.18,3.18,0,0,0,.73-1.36.11.11,0,0,1,.11-.09h.19a.1.1,0,0,1,.09,0,.12.12,0,0,1,0,.09.11.11,0,0,1,0,.05,3.44,3.44,0,0,1-.9,1.59,2.09,2.09,0,0,1-1.54.69,1.82,1.82,0,0,1-1-.29,1.69,1.69,0,0,1-.63-.81,2.27,2.27,0,0,1-.65.77,1.36,1.36,0,0,1-.88.33,2.28,2.28,0,0,1-.66-.11,1.24,1.24,0,0,1-.55-.35.85.85,0,0,1-.21-.59,1,1,0,0,1,.24-.64.75.75,0,0,1,.61-.29.6.6,0,0,1,.42.15.51.51,0,0,1,.17.39.81.81,0,0,1-.21.55A.88.88,0,0,1,508.88,286.09Z" transform="translate(0 42.19)"/><path id="Cmsy10-bb" class="cls-16" d="M520,284.53c-.11,0-.18-.13-.21-.38v-.09a3.48,3.48,0,0,1,.69-2.1,2.15,2.15,0,0,1,1.8-.94,2.32,2.32,0,0,1,1.25.34,9,9,0,0,1,1.32,1,10.54,10.54,0,0,0,1.26,1,2.18,2.18,0,0,0,1.17.31,1.86,1.86,0,0,0,1.06-.32,2.19,2.19,0,0,0,.73-.86,2.45,2.45,0,0,0,.27-1.11c0-.26.1-.38.22-.38s.18.12.21.38v.08a3.49,3.49,0,0,1-.31,1.44,2.89,2.89,0,0,1-.87,1.16,2,2,0,0,1-1.31.45,2.4,2.4,0,0,1-1.23-.32,10.7,10.7,0,0,1-1.29-1,10,10,0,0,0-1.28-1,2.26,2.26,0,0,0-1.2-.33,1.81,1.81,0,0,0-1.06.32,2.14,2.14,0,0,0-.74.86,2.39,2.39,0,0,0-.27,1.11C520.13,284.4,520.06,284.53,520,284.53Z" transform="translate(0 42.19)"/><path id="Cmsy10-4e" class="cls-16" d="M532.76,286.49a1.92,1.92,0,0,1,.19-.72c.12-.3.26-.45.41-.45l0,0a1.57,1.57,0,0,0,1.18.49c.26,0,.5-.23.7-.71a16.37,16.37,0,0,0,.59-1.66c.11-.31.23-.73.38-1.24s.26-.93.34-1.25.15-.62.25-1.07.17-.85.23-1.18.12-.69.17-1,.09-.72.13-1.1a.26.26,0,0,1,.11-.19,1.45,1.45,0,0,1,.39-.3,1.66,1.66,0,0,1,.43-.14h.12c.06,0,.1.06.11.1.25.87.56,1.87.93,3s.62,1.87.86,2.52.52,1.35.85,2.07a15.79,15.79,0,0,0,1.06,2q.78-3.36,1.56-6.1l.2-.69c.21-.76.39-1.35.53-1.77a5.43,5.43,0,0,1,.53-1.14,2,2,0,0,1,.69-.65,3.42,3.42,0,0,1,.93-.33,6,6,0,0,1,1.05-.1c.09,0,.14.09.14.25a1.78,1.78,0,0,1-.08.45,1.81,1.81,0,0,1-.21.49.54.54,0,0,1-.3.25,5.59,5.59,0,0,0-1.06.09,2.41,2.41,0,0,0-.84.35.81.81,0,0,0-.23.21c0,.05-.07.19-.15.43s-.25.78-.38,1.27l-.2.68c-.26.92-.48,1.75-.68,2.51s-.39,1.51-.57,2.25-.35,1.5-.53,2.26c0,0,0,0,0,0a0,0,0,0,1,0,0,.41.41,0,0,1-.17.28,1.47,1.47,0,0,1-.4.24,1.8,1.8,0,0,1-.36.13h-.1a3.85,3.85,0,0,1-.85-1.27c-.4-.76-.71-1.39-.91-1.88q-1.11-2.76-2-5.76c-.07.48-.24,1.25-.48,2.3s-.54,2.1-.87,3.16a15.32,15.32,0,0,1-1.11,2.7c-.4.73-.81,1.09-1.21,1.09a2.14,2.14,0,0,1-.88-.22C532.92,286.9,532.76,286.72,532.76,286.49Z" transform="translate(0 42.19)"/><path id="Cmr10-28-2" data-name="Cmr10-28" class="cls-16" d="M550.13,290.25a8,8,0,0,1-1.44-1.52,8.41,8.41,0,0,1-1-1.82,10.43,10.43,0,0,1-.58-2,11.61,11.61,0,0,1-.19-2.12,11.8,11.8,0,0,1,.19-2.13,10.74,10.74,0,0,1,.58-2,9.46,9.46,0,0,1,1-1.82,7.44,7.44,0,0,1,1.42-1.49s0,0,.08,0h.14s0,0,.08,0a.16.16,0,0,1,0,.09.22.22,0,0,1,0,.1,7.31,7.31,0,0,0-1.22,1.54,8.37,8.37,0,0,0-.79,1.75,10.73,10.73,0,0,0-.43,1.92,17.12,17.12,0,0,0-.13,2.06q0,4.77,2.55,7.25a.16.16,0,0,1,0,.12.1.1,0,0,1,0,.08.08.08,0,0,1-.07,0h-.14C550.16,290.27,550.13,290.26,550.13,290.25Z" transform="translate(0 42.19)"/><path id="Cmmi10-b9-2" data-name="Cmmi10-b9" class="cls-16" d="M551.72,289.34a.27.27,0,0,1,0-.11l2.2-8.86a.71.71,0,0,1,.24-.34.63.63,0,0,1,.39-.13.43.43,0,0,1,.32.11.39.39,0,0,1,.14.3s0,.06,0,.07a.13.13,0,0,1,0,.06l-.88,3.51A4.63,4.63,0,0,0,554,285a1.56,1.56,0,0,0,.26.92.94.94,0,0,0,.8.36,2.32,2.32,0,0,0,1.92-1.37v0l1.08-4.35a.6.6,0,0,1,.23-.34.63.63,0,0,1,.4-.14.49.49,0,0,1,.31.11.4.4,0,0,1,.14.31.29.29,0,0,1,0,.12L558,284.92a3.16,3.16,0,0,0-.11.73c0,.43.15.65.45.65s.54-.2.7-.58a8.72,8.72,0,0,0,.42-1.4.11.11,0,0,1,.12-.09h.18a.12.12,0,0,1,.09,0,.13.13,0,0,1,0,.1,8.14,8.14,0,0,1-.57,1.68,1.06,1.06,0,0,1-1,.63,1.44,1.44,0,0,1-.88-.28,1.36,1.36,0,0,1-.5-.77,3.31,3.31,0,0,1-.87.76,2.14,2.14,0,0,1-1.06.29,2.23,2.23,0,0,1-1.48-.44l-.76,3a.55.55,0,0,1-.22.35.59.59,0,0,1-.39.13.52.52,0,0,1-.32-.11A.4.4,0,0,1,551.72,289.34Z" transform="translate(0 42.19)"/><path id="Cmmi10-78-5" data-name="Cmmi10-78" class="cls-16" d="M561.16,288.77a.81.81,0,0,0,.52.15.74.74,0,0,0,.58-.32,1.72,1.72,0,0,0,.34-.69l.48-1.86a3.45,3.45,0,0,0,.11-.69.72.72,0,0,0-.14-.46.49.49,0,0,0-.41-.19,1.07,1.07,0,0,0-.63.2,2.08,2.08,0,0,0-.49.53,2.28,2.28,0,0,0-.28.65.08.08,0,0,1-.08.07H561s-.08,0-.08-.1v0a2.47,2.47,0,0,1,.35-.76,1.91,1.91,0,0,1,.6-.6,1.34,1.34,0,0,1,.76-.24,1.17,1.17,0,0,1,.69.21,1.06,1.06,0,0,1,.44.56,1.74,1.74,0,0,1,.46-.54,1,1,0,0,1,.61-.23,1.25,1.25,0,0,1,.46.09.86.86,0,0,1,.39.24.58.58,0,0,1,.15.41.69.69,0,0,1-.17.46.56.56,0,0,1-.44.19.39.39,0,0,1-.28-.11.34.34,0,0,1-.12-.27.56.56,0,0,1,.15-.39.71.71,0,0,1,.37-.2.9.9,0,0,0-.53-.14.71.71,0,0,0-.58.31,1.71,1.71,0,0,0-.35.7l-.47,1.85a3,3,0,0,0-.11.69.71.71,0,0,0,.15.46.5.5,0,0,0,.41.2,1.14,1.14,0,0,0,.87-.44,2.11,2.11,0,0,0,.51-1,.1.1,0,0,1,.09-.06h.13l.06,0a.09.09,0,0,1,0,.06v0a2.38,2.38,0,0,1-.63,1.12,1.48,1.48,0,0,1-1.08.48,1.29,1.29,0,0,1-.69-.2,1.14,1.14,0,0,1-.44-.57,1.67,1.67,0,0,1-.45.54,1,1,0,0,1-.62.23,1.28,1.28,0,0,1-.46-.08.86.86,0,0,1-.39-.24.6.6,0,0,1-.15-.42.67.67,0,0,1,.17-.44.54.54,0,0,1,.43-.21.42.42,0,0,1,.29.11.34.34,0,0,1,.12.27.56.56,0,0,1-.15.39A.57.57,0,0,1,561.16,288.77Z" transform="translate(0 42.19)"/><path id="Cmmi10-3b" class="cls-16" d="M568.77,289.23a.18.18,0,0,1,.06-.13,3.86,3.86,0,0,0,.85-1.2,3.51,3.51,0,0,0,.3-1.44v-.18a.85.85,0,0,1-.6.24.81.81,0,0,1-.59-.24.83.83,0,0,1,0-1.17.8.8,0,0,1,.59-.23.78.78,0,0,1,.76.49,2.59,2.59,0,0,1,.22,1.09,3.9,3.9,0,0,1-.33,1.59,4.44,4.44,0,0,1-.94,1.35l-.1,0a.21.21,0,0,1-.14-.07A.19.19,0,0,1,568.77,289.23Z" transform="translate(0 42.19)"/><path id="Cmmi10-be" class="cls-16" d="M581.27,286.69a2.18,2.18,0,0,1-2-1.18,2.52,2.52,0,0,1-.28-1.19,3.88,3.88,0,0,1,.31-1.47,5.18,5.18,0,0,1,.86-1.4,4.52,4.52,0,0,1,1.23-1,3,3,0,0,1,1.42-.37h3.78a.35.35,0,0,1,.26.1.38.38,0,0,1,.11.28.52.52,0,0,1-.16.38.5.5,0,0,1-.37.17h-1.83a2.78,2.78,0,0,1,.43,1.56,3.84,3.84,0,0,1-.3,1.48,4.49,4.49,0,0,1-.81,1.34,4,4,0,0,1-1.21,1A3.12,3.12,0,0,1,581.27,286.69Zm0-.39a2,2,0,0,0,1.46-.64,4.39,4.39,0,0,0,1-1.57,5.16,5.16,0,0,0,.33-1.72,1.37,1.37,0,0,0-.35-1,1.3,1.3,0,0,0-1-.37,2.08,2.08,0,0,0-1.49.58,3.64,3.64,0,0,0-.91,1.48,5.28,5.28,0,0,0-.31,1.7,1.82,1.82,0,0,0,.34,1.1A1.14,1.14,0,0,0,581.28,286.3Z" transform="translate(0 42.19)"/><path id="Cmr10-32" class="cls-16" d="M588.46,280.78v-.28s0,0,0-.05l1.63-1.81c.25-.27.45-.49.6-.67a5.73,5.73,0,0,0,.46-.63,3,3,0,0,0,.35-.72,2.19,2.19,0,0,0,.13-.77,2.34,2.34,0,0,0-.15-.83,1.43,1.43,0,0,0-.48-.62,1.21,1.21,0,0,0-.76-.24,1.34,1.34,0,0,0-.82.27,1.51,1.51,0,0,0-.51.71H589a.58.58,0,0,1,.4.16.58.58,0,0,1,0,.82.54.54,0,0,1-.4.17.57.57,0,0,1-.41-.17.58.58,0,0,1-.17-.41,1.83,1.83,0,0,1,.58-1.35,1.93,1.93,0,0,1,.63-.42,2,2,0,0,1,.74-.14,2.49,2.49,0,0,1,1.12.25,2,2,0,0,1,.82.72,2,2,0,0,1,.3,1.09,1.84,1.84,0,0,1-.2.86,2.76,2.76,0,0,1-.51.75,10.3,10.3,0,0,1-.8.76c-.32.28-.54.47-.64.57l-1.19,1.14h2.25a2.22,2.22,0,0,0,.53,0,2.47,2.47,0,0,0,.26-1h.3l-.29,1.87Z" transform="translate(0 42.19)"/><path id="Cmmi10-78-6" data-name="Cmmi10-78" class="cls-16" d="M587.85,290.05a.85.85,0,0,0,.52.14.73.73,0,0,0,.58-.31,1.72,1.72,0,0,0,.34-.69l.48-1.87a4.11,4.11,0,0,0,.11-.69.77.77,0,0,0-.14-.45.5.5,0,0,0-.41-.2,1.08,1.08,0,0,0-.63.21,1.78,1.78,0,0,0-.49.53,2.17,2.17,0,0,0-.28.65s0,.06-.08.06h-.13c-.06,0-.08,0-.08-.1v0a2.44,2.44,0,0,1,.34-.76,2.18,2.18,0,0,1,.61-.6,1.38,1.38,0,0,1,.76-.23,1.2,1.2,0,0,1,.69.21,1,1,0,0,1,.44.55,1.84,1.84,0,0,1,.46-.54,1,1,0,0,1,.61-.22,1.48,1.48,0,0,1,.46.08.86.86,0,0,1,.39.24.59.59,0,0,1,.15.41.69.69,0,0,1-.17.46.58.58,0,0,1-.44.19.39.39,0,0,1-.28-.1.38.38,0,0,1-.12-.28.55.55,0,0,1,.15-.38.62.62,0,0,1,.37-.2.86.86,0,0,0-.53-.15.74.74,0,0,0-.58.31,2,2,0,0,0-.36.7l-.46,1.86a3,3,0,0,0-.11.69.73.73,0,0,0,.15.46.48.48,0,0,0,.4.19,1.14,1.14,0,0,0,.88-.43,2.16,2.16,0,0,0,.51-.95s0-.06.08-.06h.13a.08.08,0,0,1,.07,0,.09.09,0,0,1,0,.07,0,0,0,0,0,0,0,2.3,2.3,0,0,1-.63,1.11,1.47,1.47,0,0,1-1.08.49,1.22,1.22,0,0,1-.69-.21,1.16,1.16,0,0,1-.44-.56,1.79,1.79,0,0,1-.46.54,1,1,0,0,1-.61.23,1.6,1.6,0,0,1-.47-.08.9.9,0,0,1-.38-.25.56.56,0,0,1-.15-.41.72.72,0,0,1,.17-.45.55.55,0,0,1,.43-.2.41.41,0,0,1,.29.1.35.35,0,0,1,.12.28.54.54,0,0,1-.15.38A.67.67,0,0,1,587.85,290.05Z" transform="translate(0 42.19)"/><path id="Cmr10-29-2" data-name="Cmr10-29" class="cls-16" d="M595.12,290.27c-.09,0-.13,0-.13-.13a.12.12,0,0,1,0-.09q2.57-2.51,2.56-7.28c0-3.17-.85-5.59-2.54-7.24,0,0,0-.07,0-.13a.12.12,0,0,1,0-.09.13.13,0,0,1,.09,0h.14a.09.09,0,0,1,.07,0,7.47,7.47,0,0,1,1.8,2.07,9.92,9.92,0,0,1,1,2.59,12.17,12.17,0,0,1,.15,4.9,10.4,10.4,0,0,1-.57,2,8.63,8.63,0,0,1-1,1.85,7.61,7.61,0,0,1-1.44,1.51l-.07,0Z" transform="translate(0 42.19)"/></g><g id="text_7" data-name="text 7"><path id="Cmmi10-b9-3" data-name="Cmmi10-b9" class="cls-17" d="M16.21,267a.49.49,0,0,1,0-.14l2.65-10.62a.87.87,0,0,1,.28-.42.81.81,0,0,1,.48-.16.56.56,0,0,1,.38.14.44.44,0,0,1,.16.37v.08s0,0,0,.06l-1.06,4.21a5.66,5.66,0,0,0-.18,1.3,1.84,1.84,0,0,0,.32,1.1,1.13,1.13,0,0,0,1,.43,2.79,2.79,0,0,0,2.3-1.64v0a0,0,0,0,0,0,0l1.3-5.22a.71.71,0,0,1,.28-.41.78.78,0,0,1,.48-.17.57.57,0,0,1,.37.14.46.46,0,0,1,.16.37.26.26,0,0,1,0,.14l-1.29,5.18a3.53,3.53,0,0,0-.13.88c0,.52.18.78.53.78a.92.92,0,0,0,.84-.7,8.91,8.91,0,0,0,.5-1.68.14.14,0,0,1,.15-.1h.21a.17.17,0,0,1,.12.05.21.21,0,0,1,0,.12,10.42,10.42,0,0,1-.69,2,1.27,1.27,0,0,1-1.22.76,1.72,1.72,0,0,1-1.06-.34,1.66,1.66,0,0,1-.6-.92,3.79,3.79,0,0,1-1,.91,2.51,2.51,0,0,1-1.27.35,2.73,2.73,0,0,1-1.77-.53l-.91,3.64a.67.67,0,0,1-.26.42.81.81,0,0,1-.48.15.54.54,0,0,1-.38-.14A.44.44,0,0,1,16.21,267Z" transform="translate(0 42.19)"/><path id="Cmmi10-79-3" data-name="Cmmi10-79" class="cls-17" d="M27.6,268.49a1,1,0,0,0,.92.46,1.45,1.45,0,0,0,1-.42,3.32,3.32,0,0,0,.7-1,6.77,6.77,0,0,0,.42-1.22,1.77,1.77,0,0,1-1.22.53,1.93,1.93,0,0,1-.84-.17,1.29,1.29,0,0,1-.55-.51,1.67,1.67,0,0,1-.19-.83,3.15,3.15,0,0,1,.11-.85,8.75,8.75,0,0,1,.31-1c.13-.36.25-.67.35-.93a2.35,2.35,0,0,0,.16-.76c0-.25-.09-.37-.27-.37a1,1,0,0,0-.83.51,3.92,3.92,0,0,0-.47,1.15.11.11,0,0,1-.11.08H27c-.07,0-.11,0-.11-.12v0a4.13,4.13,0,0,1,.62-1.34,1.28,1.28,0,0,1,1.06-.58,1.06,1.06,0,0,1,.76.3,1,1,0,0,1,.31.75,1.3,1.3,0,0,1-.1.49l-.25.67c-.14.34-.24.63-.31.86s-.12.44-.17.66a3.59,3.59,0,0,0-.07.65,1.31,1.31,0,0,0,.18.71.63.63,0,0,0,.57.29,1.73,1.73,0,0,0,1.4-.95l.95-3.89a.54.54,0,0,1,.2-.28.52.52,0,0,1,.33-.12.39.39,0,0,1,.27.1.3.3,0,0,1,.11.25.22.22,0,0,1,0,.1l-1.25,5a3.38,3.38,0,0,1-.61,1.23,3.43,3.43,0,0,1-1.06,1,2.58,2.58,0,0,1-1.3.36,1.82,1.82,0,0,1-.65-.12,1.26,1.26,0,0,1-.52-.38,1,1,0,0,1-.19-.59.91.91,0,0,1,.2-.6.64.64,0,0,1,.54-.25.45.45,0,0,1,.34.13.42.42,0,0,1,.14.32.67.67,0,0,1-.22.51.69.69,0,0,1-.5.21h0Z" transform="translate(0 42.19)"/></g><g id="line2d_12" data-name="line2d 12"><g class="cls-3"><path id="me7d2bdb254" class="cls-18" d="M386.45,269.36a4,4,0,1,0-2.83-1.17A4,4,0,0,0,386.45,269.36Z" transform="translate(0 42.19)"/></g></g></g></g></svg>