<svg id="Layer_1" data-name="Layer 1" xmlns="http://www.w3.org/2000/svg" xmlns:xlink="http://www.w3.org/1999/xlink" viewBox="0 0 640.39 424.7"><defs><style>.cls-1,.cls-10,.cls-11,.cls-12,.cls-14,.cls-6,.cls-7,.cls-8,.cls-9{fill:none;}.cls-2{fill:#fff;}.cls-3{clip-path:url(#clip-path);}.cls-16,.cls-4{fill:#dc2626;}.cls-4,.cls-5{fill-opacity:0.16;stroke-opacity:0.16;}.cls-4,.cls-8,.cls-9{stroke:#dc2626;}.cls-10,.cls-11,.cls-12,.cls-13,.cls-14,.cls-18,.cls-4,.cls-5,.cls-6,.cls-7,.cls-8,.cls-9{stroke-linejoin:round;}.cls-5{fill:#16a34a;}.cls-10,.cls-11,.cls-5{stroke:#16a34a;}.cls-6{stroke:#9ca3af;stroke-width:1.5px;stroke-dasharray:7.5 6;}.cls-7{stroke:#d1d5db;stroke-dasharray:2 3;}.cls-10,.cls-8{stroke-linecap:square;stroke-width:2.3px;}.cls-11,.cls-9{stroke-width:1.2px;stroke-dasharray:3.6 3.6;}.cls-12,.cls-13{stroke:#111827;stroke-width:1.9px;}.cls-12,.cls-13,.cls-14{stroke-linecap:round;}.cls-13{fill:#111827;}.cls-14,.cls-18{stroke:#2563eb;}.cls-14{stroke-width:2.6px;}.cls-15,.cls-18{fill:#2563eb;}.cls-17{fill:#15803d;}</style><clipPath id="clip-path" transform="translate(0 0)"><rect class="cls-1" x="7.2" y="18.18" width="618.56" height="399.32"/></clipPath></defs><g id="figure_1" data-name="figure 1"><g id="patch_1" data-name="patch 1"><path class="cls-2" d="M0,424.7H640.39V0H0Z" transform="translate(0 0)"/></g><g id="axes_1" data-name="axes 1"><g id="FillBetweenPolyCollection_1" data-name="FillBetweenPolyCollection 1"><g class="cls-3"><path id="m7ca1ad39ad" class="cls-4" d="M176.33,357.2v.28H584.52v-.28h0l-1.36,0-1.37,0-1.36,0-1.37,0-1.36,0-1.37,0L575,357l-1.37,0-1.36,0-1.37,0-1.36,0-1.37,0-1.36-.05-1.37-.05-1.36-.06-1.37-.06-1.36-.06-1.37-.07-1.36-.07-1.37-.07-1.37-.08-1.36-.09-1.37-.09-1.36-.09-1.37-.11-1.36-.1-1.37-.12-1.36-.11-1.37-.13-1.36-.13-1.37-.14-1.36-.15-1.37-.16-1.36-.16-1.37-.17-1.36-.19-1.37-.19-1.36-.2-1.37-.21-1.36-.22-1.37-.23-1.36-.24-1.37-.26-1.37-.26-1.36-.28-1.37-.29-1.36-.31L519,351.3l-1.36-.34-1.37-.34-1.36-.36-1.37-.38-1.36-.39-1.37-.4-1.36-.43-1.37-.44-1.36-.45-1.37-.48L504,346.8l-1.37-.5-1.36-.53-1.37-.55-1.36-.56-1.37-.58-1.36-.61-1.37-.62-1.36-.64-1.37-.66-1.37-.68-1.36-.7-1.37-.72-1.36-.75-1.37-.76-1.36-.78-1.37-.81-1.36-.82-1.37-.85-1.36-.86-1.37-.89-1.36-.9-1.37-.92-1.36-.95-1.37-1-1.36-1-1.37-1-1.36-1-1.37-1-1.36-1.05L463,323,461.66,322l-1.37-1.1-1.37-1.11-1.36-1.13-1.37-1.14-1.36-1.16-1.37-1.16L452.1,314l-1.37-1.19-1.36-1.19-1.37-1.2-1.36-1.21L445.27,308l-1.36-1.21-1.37-1.23-1.36-1.22-1.37-1.22-1.36-1.23-1.37-1.22-1.36-1.22-1.37-1.21L433,297l-1.37-1.2-1.36-1.19-1.37-1.18-1.37-1.17-1.36-1.16L424.79,290l-1.36-1.13-1.37-1.11-1.36-1.09-1.37-1.07L418,284.5l-1.37-1-1.36-1-1.37-1-1.36-.95-1.37-.92-1.36-.89-1.37-.86-1.36-.83-1.37-.8-1.36-.76-1.37-.72-1.36-.69-1.37-.65-1.36-.61-1.37-.57-1.37-.53-1.36-.49-1.37-.45-1.36-.4-1.37-.36-1.36-.32-1.37-.27-1.36-.23L385.2,269l-1.36-.14-1.37-.09-1.36-.05h-1.37l-1.36.05-1.37.09-1.36.14-1.37.18-1.36.23-1.37.27-1.36.32-1.37.36-1.36.4-1.37.45-1.36.49-1.37.53-1.37.57-1.36.61-1.37.65-1.36.69-1.37.72-1.36.76-1.37.8-1.36.83-1.37.86-1.36.89-1.37.92-1.36.95-1.37,1-1.36,1-1.37,1-1.36,1.05-1.37,1.07-1.36,1.09-1.37,1.11L336.06,290l-1.37,1.14-1.36,1.16L332,293.42l-1.37,1.18-1.36,1.19-1.37,1.2-1.36,1.21-1.37,1.21-1.36,1.22-1.37,1.22L321,303.08l-1.37,1.22-1.36,1.22-1.37,1.23L315.58,308l-1.37,1.22-1.36,1.21-1.37,1.2-1.36,1.19L308.75,314l-1.36,1.18L306,316.31l-1.36,1.16-1.37,1.14-1.36,1.13-1.37,1.11-1.37,1.1L297.83,323l-1.37,1.07-1.36,1.05-1.37,1-1.36,1-1.37,1-1.36,1-1.37,1-1.36.95-1.37.92-1.36.9-1.37.89-1.36.86-1.37.85-1.36.82-1.37.81-1.36.78-1.37.76-1.36.75-1.37.72-1.36.7-1.37.68-1.37.66-1.36.64-1.37.62-1.36.61-1.37.58-1.36.56-1.37.55-1.36.53-1.37.5-1.36.49-1.37.48-1.36.45-1.37.44-1.36.43-1.37.4-1.36.39-1.37.38-1.36.36-1.37.34-1.36.34-1.37.31-1.36.31-1.37.29-1.36.28-1.37.26-1.37.26-1.36.24-1.37.23-1.36.22-1.37.21-1.36.2-1.37.19-1.36.19-1.37.17-1.36.16L220,355l-1.36.15-1.37.14-1.36.13-1.37.13-1.36.11-1.37.12-1.36.1-1.37.11-1.36.09-1.37.09-1.36.09-1.37.08-1.37.07-1.36.07-1.37.07-1.36.06-1.37.06-1.36.06-1.37.05-1.36.05-1.37,0-1.36,0-1.37,0-1.36,0-1.37,0-1.36,0-1.37,0-1.36,0-1.37,0-1.36,0-1.37,0Z" transform="translate(0 0)"/></g></g><g id="FillBetweenPolyCollection_2" data-name="FillBetweenPolyCollection 2"><g class="cls-3"><path id="m73033c7929" class="cls-5" d="M119.15,320.49h.28V55.16h-.28l0,.89,0,.89,0,.89,0,.88,0,.89,0,.89,0,.89,0,.88,0,.89,0,.89,0,.88,0,.89-.05.89,0,.89-.06.88-.06.89-.06.89-.07.89-.07.88-.07.89-.08.89-.09.89-.09.88-.09.89-.1.89-.11.89-.11.88-.12.89-.13.89-.13.89-.14.88-.15.89-.15.89-.17.88-.17.89-.18.89-.19.89-.2.88-.22.89-.22.89-.23.89-.24.88-.25.89-.27.89-.28.89-.29.88-.3.89-.32.89-.33.89-.35.88-.36.89-.37.89-.4.89-.4.88-.42.89-.44.89-.46.88-.47.89-.49.89-.51.89-.53.88-.54.89-.57.89L106,112l-.6.88-.62.89-.65.89-.66.89-.68.88-.7.89-.72.89-.74.89-.77.88-.78.89-.8.89-.83.89-.84.88-.87.89-.88.89-.91.88-.92.89-1,.89-1,.89-1,.88-1,.89-1,.89-1,.89-1,.88-1.07.89-1.08.89-1.1.89-1.12.88-1.13.89-1.14.89-1.16.89-1.16.88-1.18.89-1.18.89-1.2.88-1.2.89-1.21.89-1.21.89-1.22.88-1.22.89-1.23.89-1.22.89-1.22.88-1.23.89-1.21.89-1.22.89-1.21.88-1.2.89-1.19.89-1.18.89-1.17.88L53,158.1,51.9,159l-1.13.89-1.11.88-1.09.89-1.07.89-1,.88-1,.89-1,.89-1,.89-1,.88-.92.89-.89.89-.86.89-.83.88-.79.89-.76.89-.73.89-.68.88-.65.89-.61.89-.58.89-.53.88-.49.89-.44.89-.41.89-.36.88-.32.89-.27.89-.23.88-.18.89-.14.89-.09.89,0,.88v.89l0,.89.09.89.14.88.18.89.23.89.27.89.32.88.36.89.41.89.44.89.49.88.53.89.58.89.61.89.65.88.68.89.73.89.76.88.79.89.83.89.86.89.89.88.92.89,1,.89,1,.89,1,.88,1,.89,1,.89,1.07.89,1.09.88,1.11.89,1.13.89,1.14.89,1.16.88,1.17.89,1.18.89,1.19.89,1.2.88,1.21.89,1.22.89,1.21.88,1.23.89,1.22.89,1.22.89,1.23.88,1.22.89,1.22.89,1.21.89,1.21.88,1.2.89,1.2.89,1.18.89,1.18.88,1.16.89,1.16.89,1.14.89,1.13.88,1.12.89,1.1.89,1.08.89,1.07.88,1,.89,1,.89,1,.88,1,.89,1,.89,1,.89,1,.88.92.89.91.89.88.89.87.88.84.89.83.89.8.89.78.88.77.89.74.89.72.89.7.88.68.89.66.89.65.88.62.89.6.89.58.89.57.88.54.89.53.89.51.89.49.88.47.89.46.89.44.89.42.88.4.89.4.89.37.89.36.88.35.89.33.89.32.89.3.88.29.89.28.89.27.88.25.89.24.89.23.89.22.88.22.89.2.89.19.89.18.88.17.89.17.89.15.89.15.88.14.89.13.89.13.89.12.88.11.89.11.89.1.89.09.88.09.89.09.89.08.88.07.89.07.89.07.89.06.88.06.89.06.89,0,.89.05.88,0,.89,0,.89,0,.89,0,.88,0,.89,0,.89,0,.89,0,.88,0,.89,0,.89,0,.89Z" transform="translate(0 0)"/></g></g><g id="line2d_1" data-name="line2d 1"><g class="cls-3"><path class="cls-6" d="M380.43,357.48V187.83" transform="translate(0 0)"/></g></g><g id="line2d_2" data-name="line2d 2"><g class="cls-3"><path class="cls-6" d="M119.43,187.83h261" transform="translate(0 0)"/></g></g><g id="line2d_3" data-name="line2d 3"><g class="cls-3"><path class="cls-7" d="M320.4,357.48V226.85" transform="translate(0 0)"/></g></g><g id="line2d_4" data-name="line2d 4"><g class="cls-3"><path class="cls-7" d="M119.43,226.85h201" transform="translate(0 0)"/></g></g><g id="line2d_5" data-name="line2d 5"><g class="cls-3"><path class="cls-7" d="M440.45,357.48V148.81" transform="translate(0 0)"/></g></g><g id="line2d_6" data-name="line2d 6"><g class="cls-3"><path class="cls-7" d="M119.43,148.81h321" transform="translate(0 0)"/></g></g><g id="line2d_7" data-name="line2d 7"><g class="cls-3"><path class="cls-8" d="M176.33,357.2l15-.35,10.92-.46,9.56-.63L220,355l6.83-.87,6.82-1.1,5.47-1.09,5.46-1.3,5.46-1.53,5.46-1.8,5.46-2.07,5.46-2.37,5.46-2.68,5.46-3,5.46-3.34,5.46-3.66,5.46-4,5.46-4.25,6.83-5.64,8.19-7.13,20.48-18.09,5.46-4.47,5.46-4.15,4.1-2.84,4.09-2.58,4.1-2.28,4.09-1.95,2.74-1.1,2.73-.94,2.73-.76,2.73-.59,2.73-.41,2.73-.23,2.73-.05,2.73.14,2.73.32,2.73.5,2.73.68,2.73.85,2.73,1,4.1,1.83,4.09,2.17,4.1,2.49,4.09,2.76,4.1,3,5.46,4.32,6.83,5.78,9.55,8.48L452.1,314l6.82,5.77,5.47,4.37,5.46,4.11,5.46,3.81,5.46,3.5,5.46,3.17,5.46,2.85,5.46,2.53,5.46,2.22,5.46,1.92,5.46,1.66L519,351.3l5.46,1.19,5.47,1,6.82,1,6.83.78,8.19.7,9.56.56,10.92.41,12.28.26h0" transform="translate(0 0)"/></g></g><g id="line2d_8" data-name="line2d 8"><g class="cls-3"><path class="cls-9" d="M380.43,357.48V268.74" transform="translate(0 0)"/></g></g><g id="line2d_9" data-name="line2d 9"><g class="cls-3"><path class="cls-10" d="M119.15,320.49l-.34-9.76-.47-7.1-.63-6.21-.78-5.32-.86-4.44L115,283.22l-1.09-3.55-1.3-3.55L111,272.57,109.25,269l-2.07-3.55-2.37-3.55-2.69-3.54-3-3.55-3.34-3.55-3.66-3.55-4-3.55-5.34-4.44L77.1,235.3l-8.4-6.21L54.2,218.44,48.57,214l-4.15-3.55-2.84-2.67L39,205.13l-2.28-2.66-1.94-2.66-1.6-2.66-.85-1.78-.68-1.77-.5-1.78-.32-1.77-.13-1.78,0-1.77.23-1.78.41-1.77.59-1.78.77-1.77.93-1.78L35.39,175l2.06-2.66,2.38-2.66L42.5,167l4-3.55,4.32-3.54,5.78-4.44,9.7-7.1,10.85-8,5.71-4.43,5.34-4.44,4-3.55,3.66-3.55,3.34-3.55,3-3.55,2.69-3.55,2.37-3.55,2.07-3.55,1.79-3.55,1.53-3.55,1.3-3.55L115,92.43,116.07,88l.86-4.44.78-5.32.56-5.33.49-7.1.32-8,.07-2.67h0" transform="translate(0 0)"/></g></g><g id="line2d_10" data-name="line2d 10"><g class="cls-3"><path class="cls-11" d="M119.43,187.83H30.69" transform="translate(0 0)"/></g></g><g id="patch_2" data-name="patch 2"><path class="cls-12" d="M121.43,357.48H611.2" transform="translate(0 0)"/><path class="cls-13" d="M607.2,355.48l4,2-4,2Z" transform="translate(0 0)"/></g><g id="patch_3" data-name="patch 3"><path class="cls-12" d="M119.43,355.48V32.74" transform="translate(0 0)"/><path class="cls-13" d="M117.43,36.74l2-4,2,4Z" transform="translate(0 0)"/></g><g id="text_1" data-name="text 1"><path id="Cmmi10-78" d="M623.15,363.3a1.61,1.61,0,0,0,1,.27,1.4,1.4,0,0,0,1.1-.6,3.36,3.36,0,0,0,.65-1.31l.91-3.55a7.82,7.82,0,0,0,.22-1.32,1.41,1.41,0,0,0-.28-.86.93.93,0,0,0-.78-.38,2.05,2.05,0,0,0-1.19.4,3.64,3.64,0,0,0-.94,1,4.44,4.44,0,0,0-.54,1.23.14.14,0,0,1-.15.13h-.25c-.1,0-.15-.06-.15-.19v-.05a4.83,4.83,0,0,1,.66-1.45,3.82,3.82,0,0,1,1.15-1.15A2.65,2.65,0,0,1,626,355a2.33,2.33,0,0,1,1.32.39,2.1,2.1,0,0,1,.84,1.06,3.48,3.48,0,0,1,.87-1,1.85,1.85,0,0,1,1.17-.42,2.76,2.76,0,0,1,.88.15,1.76,1.76,0,0,1,.73.46,1.12,1.12,0,0,1,.28.79,1.27,1.27,0,0,1-.32.87,1.1,1.1,0,0,1-.84.37.76.76,0,0,1-.54-.21.7.7,0,0,1-.21-.52,1,1,0,0,1,.29-.73,1.09,1.09,0,0,1,.69-.38,1.59,1.59,0,0,0-1-.29,1.4,1.4,0,0,0-1.12.6,3.71,3.71,0,0,0-.67,1.33L627.5,361a5.51,5.51,0,0,0-.21,1.32,1.35,1.35,0,0,0,.29.88.92.92,0,0,0,.77.36,2.19,2.19,0,0,0,1.67-.82,4.22,4.22,0,0,0,1-1.81.16.16,0,0,1,.16-.12h.24a.19.19,0,0,1,.13.05.21.21,0,0,1,.05.12.14.14,0,0,1,0,.06,4.44,4.44,0,0,1-1.2,2.12,2.78,2.78,0,0,1-2.05.93,2.37,2.37,0,0,1-1.32-.39,2.15,2.15,0,0,1-.83-1.07,3.24,3.24,0,0,1-.87,1,1.82,1.82,0,0,1-1.18.44,2.81,2.81,0,0,1-.88-.15,1.79,1.79,0,0,1-.74-.46,1.2,1.2,0,0,1-.28-.8,1.28,1.28,0,0,1,.33-.85,1,1,0,0,1,.82-.39.81.81,0,0,1,.55.2.69.69,0,0,1,.23.53,1.09,1.09,0,0,1-.28.73A1.2,1.2,0,0,1,623.15,363.3Z" transform="translate(0 0)"/></g><g id="text_2" data-name="text 2"><path id="Cmmi10-79" d="M101.71,25.06a1.56,1.56,0,0,0,1.47.72,2.28,2.28,0,0,0,1.64-.67,5.17,5.17,0,0,0,1.12-1.6,11.27,11.27,0,0,0,.66-1.93,2.78,2.78,0,0,1-1.93.84,3.07,3.07,0,0,1-1.35-.27,2,2,0,0,1-.86-.82,2.57,2.57,0,0,1-.31-1.31,5.2,5.2,0,0,1,.18-1.34,14.86,14.86,0,0,1,.49-1.54c.21-.56.4-1.05.55-1.47a3.67,3.67,0,0,0,.27-1.2c0-.4-.15-.6-.44-.6a1.51,1.51,0,0,0-1.31.82,6,6,0,0,0-.75,1.82.17.17,0,0,1-.17.13h-.23c-.11,0-.17-.06-.17-.19v-.06a6.39,6.39,0,0,1,1-2.11,2,2,0,0,1,1.69-.92,1.65,1.65,0,0,1,1.2.47,1.55,1.55,0,0,1,.5,1.19,2.16,2.16,0,0,1-.17.78l-.4,1.06c-.21.55-.37,1-.48,1.36s-.2.71-.27,1.06a5.07,5.07,0,0,0-.11,1,2.07,2.07,0,0,0,.28,1.12,1,1,0,0,0,.9.46,2.74,2.74,0,0,0,2.23-1.51l1.51-6.16a.88.88,0,0,1,.31-.46.9.9,0,0,1,.53-.19.64.64,0,0,1,.43.16.51.51,0,0,1,.18.41.44.44,0,0,1,0,.15l-2,8a5.46,5.46,0,0,1-1,2,5.84,5.84,0,0,1-1.7,1.51,4.08,4.08,0,0,1-2.06.57,2.67,2.67,0,0,1-1-.21,1.85,1.85,0,0,1-.82-.6,1.45,1.45,0,0,1-.31-.93,1.49,1.49,0,0,1,.32-.95,1,1,0,0,1,.86-.4.77.77,0,0,1,.54.2.66.66,0,0,1,.22.52,1.18,1.18,0,0,1-1.14,1.15l0,0Z" transform="translate(0 0)"/></g><g id="patch_4" data-name="patch 4"><path class="cls-14" d="M121.11,356.39,579.89,58.18" transform="translate(0 0)"/></g><g id="text_3" data-name="text 3"><path id="Cmmi10-79-2" data-name="Cmmi10-79" class="cls-15" d="M482,77.73a1.45,1.45,0,0,0,1.38.69,2.18,2.18,0,0,0,1.56-.63A4.84,4.84,0,0,0,486,76.26a10.39,10.39,0,0,0,.62-1.83,2.62,2.62,0,0,1-1.83.8A3,3,0,0,1,483.5,75a1.93,1.93,0,0,1-.82-.78,2.54,2.54,0,0,1-.29-1.25,5.23,5.23,0,0,1,.17-1.27,14.21,14.21,0,0,1,.47-1.46l.52-1.4a3.42,3.42,0,0,0,.25-1.14c0-.37-.14-.56-.41-.56a1.45,1.45,0,0,0-1.25.77,5.89,5.89,0,0,0-.71,1.73.17.17,0,0,1-.16.13h-.22c-.11,0-.16-.06-.16-.18V69.5a6.18,6.18,0,0,1,.93-2,1.92,1.92,0,0,1,1.6-.87,1.65,1.65,0,0,1,1.15.44,1.52,1.52,0,0,1,.47,1.13,2.11,2.11,0,0,1-.16.75c-.06.15-.18.49-.38,1s-.35,1-.46,1.29-.19.67-.26,1a5.43,5.43,0,0,0-.1,1,2,2,0,0,0,.27,1.07.93.93,0,0,0,.85.44,2.61,2.61,0,0,0,2.12-1.44l1.44-5.86a.81.81,0,0,1,.29-.43.83.83,0,0,1,.5-.18.61.61,0,0,1,.41.15.51.51,0,0,1,.17.39.49.49,0,0,1,0,.15l-1.88,7.56a5.39,5.39,0,0,1-.92,1.86,5.26,5.26,0,0,1-1.61,1.44,3.89,3.89,0,0,1-2,.54,2.59,2.59,0,0,1-1-.19,1.89,1.89,0,0,1-.78-.57,1.44,1.44,0,0,1-.29-.89,1.4,1.4,0,0,1,.3-.9,1,1,0,0,1,.82-.38.74.74,0,0,1,.52.19.66.66,0,0,1,.2.49,1.11,1.11,0,0,1-1.08,1.09H482Z" transform="translate(0 0)"/><path id="Cmr10-3d" class="cls-15" d="M494.46,72.49a.31.31,0,0,1-.26-.12.4.4,0,0,1-.11-.26.4.4,0,0,1,.11-.27.33.33,0,0,1,.26-.11h11.93a.34.34,0,0,1,.24.11.39.39,0,0,1,.1.27.39.39,0,0,1-.1.26.31.31,0,0,1-.24.12Zm0-3.69a.33.33,0,0,1-.26-.11.4.4,0,0,1-.11-.27.38.38,0,0,1,.11-.26.31.31,0,0,1,.26-.12h11.93a.31.31,0,0,1,.24.12.37.37,0,0,1,.1.26.39.39,0,0,1-.1.27.34.34,0,0,1-.24.11Z" transform="translate(0 0)"/><path id="Cmmi10-48" class="cls-15" d="M512,75c-.13,0-.19-.08-.19-.25l0-.16a.52.52,0,0,1,.07-.18.16.16,0,0,1,.13-.07,7.25,7.25,0,0,0,1.62-.13c.16-.06.28-.23.36-.52l2.61-10.43a2,2,0,0,0,0-.26.22.22,0,0,0-.23-.23,7.79,7.79,0,0,0-1.36-.08c-.13,0-.19-.08-.19-.25s.08-.27.1-.33.1-.09.21-.09h5.12c.13,0,.19.09.19.25a.73.73,0,0,1,0,.16.47.47,0,0,1-.07.19.15.15,0,0,1-.14.07,7.08,7.08,0,0,0-1.61.13.67.67,0,0,0-.36.52l-1.15,4.57h5.71L524,63.27c0-.13,0-.21,0-.26s-.08-.22-.24-.23a7.79,7.79,0,0,0-1.36-.08c-.13,0-.19-.08-.19-.25a2,2,0,0,1,.1-.33c0-.06.1-.09.22-.09h5.11c.13,0,.19.09.19.25l0,.17a.43.43,0,0,1-.08.18.13.13,0,0,1-.12.07,7.19,7.19,0,0,0-1.62.13c-.16.06-.28.23-.36.52l-2.61,10.43a1.8,1.8,0,0,0,0,.27c0,.13.08.2.23.22a7.88,7.88,0,0,0,1.36.08c.13,0,.2.08.2.25a2.8,2.8,0,0,1-.11.32.24.24,0,0,1-.22.09h-5.11c-.13,0-.19-.08-.19-.25s0-.16,0-.2a.61.61,0,0,1,.07-.14.16.16,0,0,1,.13-.07,7.08,7.08,0,0,0,1.61-.13c.17-.06.29-.23.36-.52l1.27-5.11H517l-1.29,5.19c0,.15-.05.24-.05.27s.08.2.23.22a8,8,0,0,0,1.38.08c.12,0,.18.08.18.25a1.51,1.51,0,0,1-.11.33c0,.06-.1.08-.21.08Z" transform="translate(0 0)"/><path id="Cmmi10-78-2" data-name="Cmmi10-78" class="cls-15" d="M528.4,74.47a1.53,1.53,0,0,0,1,.26,1.31,1.31,0,0,0,1-.57,3.28,3.28,0,0,0,.63-1.25l.86-3.37a6.58,6.58,0,0,0,.2-1.25,1.32,1.32,0,0,0-.26-.83.88.88,0,0,0-.74-.35,1.91,1.91,0,0,0-1.13.37,3.41,3.41,0,0,0-.89,1,4.25,4.25,0,0,0-.51,1.17c0,.08-.08.13-.15.13h-.23q-.15,0-.15-.18V69.5a4.34,4.34,0,0,1,.63-1.37A3.65,3.65,0,0,1,529.74,67a2.48,2.48,0,0,1,1.38-.42,2.19,2.19,0,0,1,1.25.37,2,2,0,0,1,.8,1,3.16,3.16,0,0,1,.83-1,1.72,1.72,0,0,1,1.11-.4,2.73,2.73,0,0,1,.83.14,1.62,1.62,0,0,1,.7.44,1.08,1.08,0,0,1,.27.75,1.26,1.26,0,0,1-.31.83,1,1,0,0,1-.8.34.72.72,0,0,1-.51-.19.69.69,0,0,1-.2-.5,1,1,0,0,1,.27-.69,1.12,1.12,0,0,1,.66-.36,1.51,1.51,0,0,0-.95-.27,1.33,1.33,0,0,0-1.06.56,3.54,3.54,0,0,0-.64,1.27l-.83,3.35a5,5,0,0,0-.21,1.26,1.26,1.26,0,0,0,.28.83.88.88,0,0,0,.73.35,2.08,2.08,0,0,0,1.58-.79,3.88,3.88,0,0,0,.93-1.72.14.14,0,0,1,.15-.11h.23a.17.17,0,0,1,.17.17.17.17,0,0,1,0,0,4.3,4.3,0,0,1-1.13,2,2.71,2.71,0,0,1-2,.88,2.23,2.23,0,0,1-1.26-.38,2,2,0,0,1-.79-1,3.18,3.18,0,0,1-.83,1,1.73,1.73,0,0,1-1.11.42,2.57,2.57,0,0,1-.84-.15,1.53,1.53,0,0,1-.7-.44,1.08,1.08,0,0,1-.27-.75,1.19,1.19,0,0,1,.31-.81,1,1,0,0,1,.78-.37.82.82,0,0,1,.53.19.64.64,0,0,1,.21.5,1,1,0,0,1-.27.7A1.18,1.18,0,0,1,528.4,74.47Z" transform="translate(0 0)"/></g><g id="text_4" data-name="text 4"><path id="Cmmi10-b9" class="cls-16" d="M371.3,396.1a.45.45,0,0,1,0-.14L374,385.33a.8.8,0,0,1,.28-.41.75.75,0,0,1,.48-.16.56.56,0,0,1,.38.14.44.44,0,0,1,.16.36v.09l0,.06-1.06,4.21a5.66,5.66,0,0,0-.18,1.29,1.82,1.82,0,0,0,.32,1.1,1.1,1.1,0,0,0,1,.43,2.78,2.78,0,0,0,2.3-1.63v0a0,0,0,0,0,0,0l1.3-5.22a.69.69,0,0,1,.28-.4.73.73,0,0,1,.47-.18.57.57,0,0,1,.38.14.47.47,0,0,1,.16.37c0,.07,0,.12,0,.14l-1.29,5.19a3.46,3.46,0,0,0-.13.88c0,.51.18.77.53.77s.65-.23.84-.69a9.39,9.39,0,0,0,.5-1.68.14.14,0,0,1,.15-.11H381a.14.14,0,0,1,.12.06.21.21,0,0,1,0,.12,10.42,10.42,0,0,1-.69,2,1.28,1.28,0,0,1-1.22.76,1.73,1.73,0,0,1-1.06-.35,1.62,1.62,0,0,1-.6-.92,3.63,3.63,0,0,1-1.05.91,2.42,2.42,0,0,1-1.27.36,2.73,2.73,0,0,1-1.77-.53l-.91,3.64a.67.67,0,0,1-.26.41.75.75,0,0,1-.48.16.59.59,0,0,1-.38-.14A.44.44,0,0,1,371.3,396.1Z" transform="translate(0 0)"/><path id="Cmmi10-78-3" data-name="Cmmi10-78" class="cls-16" d="M382.62,395.41a.94.94,0,0,0,.62.17.87.87,0,0,0,.7-.37,2.15,2.15,0,0,0,.41-.83l.57-2.24a4.75,4.75,0,0,0,.14-.83.86.86,0,0,0-.18-.54.56.56,0,0,0-.49-.24,1.35,1.35,0,0,0-.75.25,2.27,2.27,0,0,0-.59.64,2.75,2.75,0,0,0-.34.77.08.08,0,0,1-.09.08h-.16c-.06,0-.1,0-.1-.11v0a3.11,3.11,0,0,1,.42-.91,2.64,2.64,0,0,1,.72-.73,1.72,1.72,0,0,1,.92-.27,1.49,1.49,0,0,1,.83.24,1.34,1.34,0,0,1,.53.67,2.29,2.29,0,0,1,.55-.65,1.19,1.19,0,0,1,.73-.26,1.87,1.87,0,0,1,.56.09,1.06,1.06,0,0,1,.46.3.69.69,0,0,1,.18.49.81.81,0,0,1-.21.55.68.68,0,0,1-.52.23.46.46,0,0,1-.48-.46.67.67,0,0,1,.18-.46.8.8,0,0,1,.44-.24,1,1,0,0,0-.63-.18.87.87,0,0,0-.7.38,2.44,2.44,0,0,0-.43.83l-.55,2.23a3.47,3.47,0,0,0-.14.83.85.85,0,0,0,.19.55.56.56,0,0,0,.48.23,1.36,1.36,0,0,0,1.05-.52,2.56,2.56,0,0,0,.62-1.14.09.09,0,0,1,.09-.07h.16a.11.11,0,0,1,.08,0,.13.13,0,0,1,0,.08.08.08,0,0,1,0,0,2.82,2.82,0,0,1-.75,1.33,1.77,1.77,0,0,1-1.3.59,1.53,1.53,0,0,1-.83-.25,1.38,1.38,0,0,1-.53-.68,2,2,0,0,1-.54.65,1.2,1.2,0,0,1-.74.28,1.89,1.89,0,0,1-.56-.1,1,1,0,0,1-.46-.29.71.71,0,0,1-.18-.5.84.84,0,0,1,.2-.54.66.66,0,0,1,.52-.24.48.48,0,0,1,.35.13.39.39,0,0,1,.14.32.71.71,0,0,1-.17.47A.77.77,0,0,1,382.62,395.41Z" transform="translate(0 0)"/></g><g id="text_5" data-name="text 5"><path id="Cmmi10-78-4" data-name="Cmmi10-78" class="cls-16" d="M501.73,265.65a1.33,1.33,0,0,0,.8.22,1.11,1.11,0,0,0,.88-.48,2.75,2.75,0,0,0,.53-1.05l.72-2.84a5.77,5.77,0,0,0,.18-1.06,1.12,1.12,0,0,0-.23-.69.71.71,0,0,0-.62-.3,1.62,1.62,0,0,0-.95.32,2.73,2.73,0,0,0-.75.8,3.54,3.54,0,0,0-.43,1,.12.12,0,0,1-.13.1h-.19c-.08,0-.13-.05-.13-.15v0a4,4,0,0,1,.53-1.16,3.22,3.22,0,0,1,.92-.92A2.13,2.13,0,0,1,504,259a1.86,1.86,0,0,1,1.06.31,1.66,1.66,0,0,1,.67.85,2.77,2.77,0,0,1,.7-.82,1.43,1.43,0,0,1,.93-.34,2.15,2.15,0,0,1,.7.12,1.42,1.42,0,0,1,.59.37.92.92,0,0,1,.23.63,1,1,0,0,1-.26.7.88.88,0,0,1-.67.29.6.6,0,0,1-.43-.17.52.52,0,0,1-.17-.41.83.83,0,0,1,.23-.59.89.89,0,0,1,.55-.3,1.27,1.27,0,0,0-.8-.23,1.11,1.11,0,0,0-.89.48,2.88,2.88,0,0,0-.54,1.06l-.7,2.83a4,4,0,0,0-.17,1.05,1,1,0,0,0,.23.7.72.72,0,0,0,.61.3,1.76,1.76,0,0,0,1.34-.66,3.43,3.43,0,0,0,.78-1.45.13.13,0,0,1,.12-.1h.2a.14.14,0,0,1,.1,0,.12.12,0,0,1,0,.09l0,.05a3.61,3.61,0,0,1-.95,1.7,2.25,2.25,0,0,1-1.64.74,1.89,1.89,0,0,1-1.06-.32,1.71,1.71,0,0,1-.67-.85,2.82,2.82,0,0,1-.69.82,1.5,1.5,0,0,1-.94.35,2.25,2.25,0,0,1-.71-.12,1.42,1.42,0,0,1-.59-.37.92.92,0,0,1-.22-.64,1,1,0,0,1,.26-.68.83.83,0,0,1,.65-.31.69.69,0,0,1,.45.16.54.54,0,0,1,.18.42.88.88,0,0,1-.23.59A1,1,0,0,1,501.73,265.65Z" transform="translate(0 0)"/><path id="Cmsy10-bb" class="cls-16" d="M513.54,264c-.11,0-.19-.13-.22-.4v-.1a3.72,3.72,0,0,1,.74-2.24,2.28,2.28,0,0,1,1.92-1,2.54,2.54,0,0,1,1.33.37,9.34,9.34,0,0,1,1.41,1.09,9.74,9.74,0,0,0,1.34,1.06,2.28,2.28,0,0,0,1.25.34,1.94,1.94,0,0,0,1.13-.35,2.41,2.41,0,0,0,.79-.91,2.63,2.63,0,0,0,.28-1.19c0-.27.11-.41.23-.41s.19.14.23.41v.09a3.85,3.85,0,0,1-.33,1.54,3.19,3.19,0,0,1-.93,1.23,2.18,2.18,0,0,1-1.4.48,2.48,2.48,0,0,1-1.31-.34,9.51,9.51,0,0,1-1.37-1.07,11.19,11.19,0,0,0-1.38-1.08,2.32,2.32,0,0,0-1.27-.36,2,2,0,0,0-1.13.35,2.33,2.33,0,0,0-.79.91,2.64,2.64,0,0,0-.29,1.19C513.74,263.85,513.66,264,513.54,264Z" transform="translate(0 0)"/><path id="Cmsy10-4e" class="cls-16" d="M527.2,266.08a2.07,2.07,0,0,1,.21-.78c.13-.31.28-.47.43-.47h0a1.66,1.66,0,0,0,1.26.53c.28,0,.53-.25.74-.76a16.66,16.66,0,0,0,.64-1.77c.11-.33.25-.78.4-1.32s.28-1,.37-1.33.16-.67.26-1.15.18-.9.25-1.26.12-.73.17-1.1.1-.77.14-1.18c0-.06,0-.12.12-.2a1.94,1.94,0,0,1,.42-.32,1.9,1.9,0,0,1,.46-.15h.13a.19.19,0,0,1,.11.11c.27.93.6,2,1,3.17s.67,2,.92,2.69.56,1.43.91,2.2a16.71,16.71,0,0,0,1.13,2.15q.84-3.58,1.67-6.51l.21-.74c.23-.81.42-1.44.56-1.89a5.4,5.4,0,0,1,.57-1.21,2.1,2.1,0,0,1,.73-.69,3.41,3.41,0,0,1,1-.36,5.83,5.83,0,0,1,1.12-.1c.1,0,.14.09.14.26a2,2,0,0,1-.08.48,1.89,1.89,0,0,1-.22.52.57.57,0,0,1-.32.27,5.52,5.52,0,0,0-1.13.1,2.56,2.56,0,0,0-.9.37.75.75,0,0,0-.24.22c0,.06-.08.21-.16.47a13.94,13.94,0,0,0-.42,1.35l-.21.72c-.27,1-.51,1.88-.72,2.68s-.41,1.61-.61,2.41-.37,1.59-.56,2.4c0,0,0,0,0,0a0,0,0,0,1,0,0c0,.1-.06.19-.19.3a1.75,1.75,0,0,1-.42.26,2,2,0,0,1-.39.13h-.11a4.27,4.27,0,0,1-.9-1.35c-.43-.81-.75-1.48-1-2-.79-2-1.52-4-2.17-6.14-.08.51-.26,1.33-.52,2.45s-.57,2.24-.93,3.38a16.18,16.18,0,0,1-1.18,2.87q-.65,1.17-1.29,1.17a2.29,2.29,0,0,1-.94-.24C527.38,266.52,527.2,266.32,527.2,266.08Z" transform="translate(0 0)"/><path id="Cmr10-28" class="cls-16" d="M545.74,270.08a7.83,7.83,0,0,1-1.53-1.62,9.35,9.35,0,0,1-1.06-1.94,10.85,10.85,0,0,1-.61-2.15,12.93,12.93,0,0,1,0-4.53,10.78,10.78,0,0,1,.62-2.17,9.39,9.39,0,0,1,1.07-1.94,7.61,7.61,0,0,1,1.51-1.59s0,0,.08,0H546a.09.09,0,0,1,.08,0,.13.13,0,0,1,0,.1.13.13,0,0,1,0,.1,8.29,8.29,0,0,0-1.3,1.64,10.17,10.17,0,0,0-.84,1.87,11.59,11.59,0,0,0-.45,2,17.47,17.47,0,0,0-.14,2.21q0,5.08,2.72,7.73a.17.17,0,0,1,0,.13.16.16,0,0,1,0,.09s0,.05-.08.05h-.15C545.77,270.11,545.74,270.1,545.74,270.08Z" transform="translate(0 0)"/><path id="Cmmi10-b9-2" data-name="Cmmi10-b9" class="cls-16" d="M547.44,269.12a.42.42,0,0,1,0-.13l2.36-9.44a.69.69,0,0,1,.67-.51.5.5,0,0,1,.34.12.39.39,0,0,1,.14.32v.08a.13.13,0,0,0,0,.06l-1,3.74a5.34,5.34,0,0,0-.15,1.15,1.57,1.57,0,0,0,.28,1,1,1,0,0,0,.85.39,2.5,2.5,0,0,0,2-1.46v0l1.16-4.64a.65.65,0,0,1,.25-.37.68.68,0,0,1,.42-.15.48.48,0,0,1,.33.13.39.39,0,0,1,.15.32.31.31,0,0,1,0,.13l-1.15,4.61a3.09,3.09,0,0,0-.12.78c0,.46.16.69.47.69s.59-.21.76-.62a9.27,9.27,0,0,0,.44-1.49.13.13,0,0,1,.13-.1h.19a.14.14,0,0,1,.1,0,.18.18,0,0,1,.05.11,9.62,9.62,0,0,1-.62,1.79,1.12,1.12,0,0,1-1.08.68,1.5,1.5,0,0,1-.94-.31,1.36,1.36,0,0,1-.53-.82,3.33,3.33,0,0,1-.94.82,2.19,2.19,0,0,1-1.13.31,2.43,2.43,0,0,1-1.57-.47l-.81,3.23a.58.58,0,0,1-.23.37.67.67,0,0,1-.43.14.52.52,0,0,1-.34-.12A.42.42,0,0,1,547.44,269.12Z" transform="translate(0 0)"/><path id="Cmmi10-78-5" data-name="Cmmi10-78" class="cls-16" d="M557.5,268.51a.91.91,0,0,0,.56.15.78.78,0,0,0,.62-.34,1.73,1.73,0,0,0,.36-.73l.51-2a4.06,4.06,0,0,0,.12-.74.81.81,0,0,0-.15-.48.52.52,0,0,0-.44-.21,1.12,1.12,0,0,0-.67.22,2,2,0,0,0-.52.57,2.33,2.33,0,0,0-.3.69.09.09,0,0,1-.09.07h-.14c-.05,0-.08,0-.08-.11v0a2.46,2.46,0,0,1,.37-.81,2.17,2.17,0,0,1,.64-.64,1.43,1.43,0,0,1,.81-.25,1.26,1.26,0,0,1,.74.22,1.17,1.17,0,0,1,.47.6,1.85,1.85,0,0,1,.49-.58,1,1,0,0,1,.65-.24,1.51,1.51,0,0,1,.5.09.93.93,0,0,1,.41.26.63.63,0,0,1,.16.43.71.71,0,0,1-.19.49.59.59,0,0,1-.46.21.41.41,0,0,1-.31-.12.37.37,0,0,1-.12-.29.64.64,0,0,1,.16-.41.63.63,0,0,1,.39-.21.85.85,0,0,0-.56-.16.77.77,0,0,0-.62.33,2.22,2.22,0,0,0-.38.75l-.49,2a3,3,0,0,0-.12.74.76.76,0,0,0,.16.49.54.54,0,0,0,.43.2,1.24,1.24,0,0,0,.94-.46,2.41,2.41,0,0,0,.54-1,.1.1,0,0,1,.09-.06h.14a.1.1,0,0,1,.1.1l0,0a2.48,2.48,0,0,1-.66,1.19,1.59,1.59,0,0,1-1.15.52,1.37,1.37,0,0,1-.74-.22,1.21,1.21,0,0,1-.47-.6,1.77,1.77,0,0,1-.49.57,1,1,0,0,1-.65.25,1.51,1.51,0,0,1-.5-.09.91.91,0,0,1-.41-.26.6.6,0,0,1-.16-.44.72.72,0,0,1,.18-.48.6.6,0,0,1,.46-.22.43.43,0,0,1,.31.12.35.35,0,0,1,.13.29.57.57,0,0,1-.16.41A.64.64,0,0,1,557.5,268.51Z" transform="translate(0 0)"/><path id="Cmmi10-3b" class="cls-16" d="M565.62,269a.17.17,0,0,1,.07-.13,4.24,4.24,0,0,0,.9-1.28,3.85,3.85,0,0,0,.32-1.53v-.2a.9.9,0,0,1-.64.26.88.88,0,0,1-.63-1.51.89.89,0,0,1,.63-.25.83.83,0,0,1,.81.53,2.78,2.78,0,0,1,.24,1.17,4.11,4.11,0,0,1-.36,1.69,4.67,4.67,0,0,1-1,1.44l-.1,0a.23.23,0,0,1-.16-.07A.22.22,0,0,1,565.62,269Z" transform="translate(0 0)"/><path id="Cmmi10-be" class="cls-16" d="M579,266.29a2.33,2.33,0,0,1-1.26-.34,2.28,2.28,0,0,1-.85-.92,2.7,2.7,0,0,1-.3-1.27,4.22,4.22,0,0,1,.33-1.57,5.82,5.82,0,0,1,.92-1.5,4.82,4.82,0,0,1,1.32-1.08,3.19,3.19,0,0,1,1.51-.4h4a.41.41,0,0,1,.28.11.38.38,0,0,1,.12.3.6.6,0,0,1-.17.41.56.56,0,0,1-.4.17h-2a2.92,2.92,0,0,1,.46,1.67,4.19,4.19,0,0,1-.31,1.58,5.12,5.12,0,0,1-.87,1.43,4.41,4.41,0,0,1-1.29,1A3.39,3.39,0,0,1,579,266.29Zm0-.42a2.12,2.12,0,0,0,1.55-.69,4.49,4.49,0,0,0,1-1.67,5.39,5.39,0,0,0,.36-1.83,1.45,1.45,0,0,0-.38-1.08,1.36,1.36,0,0,0-1-.4,2.22,2.22,0,0,0-1.59.63,3.8,3.8,0,0,0-1,1.57,5.53,5.53,0,0,0-.33,1.82,1.84,1.84,0,0,0,.37,1.17A1.19,1.19,0,0,0,579,265.87Z" transform="translate(0 0)"/><path id="Cmr10-32" class="cls-16" d="M586.62,260v-.3a.14.14,0,0,1,0-.06l1.74-1.93c.27-.28.48-.52.64-.71a6.11,6.11,0,0,0,.49-.67,3.67,3.67,0,0,0,.38-.77,2.54,2.54,0,0,0,.14-.83,2.38,2.38,0,0,0-.17-.88,1.54,1.54,0,0,0-.5-.67,1.33,1.33,0,0,0-.82-.25,1.44,1.44,0,0,0-.87.29,1.61,1.61,0,0,0-.55.76h.12a.61.61,0,0,1,.43.17.57.57,0,0,1,.18.44.61.61,0,0,1-.61.61.6.6,0,0,1-.44-.18.6.6,0,0,1-.18-.43,2.06,2.06,0,0,1,.16-.79,2,2,0,0,1,.46-.66,2.11,2.11,0,0,1,.67-.44,2.15,2.15,0,0,1,.8-.15,2.69,2.69,0,0,1,1.19.27,2.08,2.08,0,0,1,.87.76,2,2,0,0,1,.33,1.16,2,2,0,0,1-.22.93,3.26,3.26,0,0,1-.54.79c-.23.24-.51.51-.86.81l-.68.61-1.27,1.22h2.4a2.22,2.22,0,0,0,.57-.05,2.6,2.6,0,0,0,.27-1h.33l-.32,2Z" transform="translate(0 0)"/><path id="Cmmi10-78-6" data-name="Cmmi10-78" class="cls-16" d="M586,269.87a.91.91,0,0,0,.56.15.76.76,0,0,0,.61-.33,2,2,0,0,0,.37-.74l.51-2a4.13,4.13,0,0,0,.12-.73.76.76,0,0,0-.16-.49.5.5,0,0,0-.43-.21,1.12,1.12,0,0,0-.67.22,2.32,2.32,0,0,0-.82,1.26.09.09,0,0,1-.09.07h-.14c-.06,0-.09,0-.09-.11v0a2.83,2.83,0,0,1,.38-.81,2.06,2.06,0,0,1,.64-.64,1.41,1.41,0,0,1,.81-.25,1.29,1.29,0,0,1,.74.22,1.17,1.17,0,0,1,.47.6,1.85,1.85,0,0,1,.49-.58,1,1,0,0,1,.65-.24,1.41,1.41,0,0,1,.49.09.83.83,0,0,1,.41.26.59.59,0,0,1,.16.43.71.71,0,0,1-.18.49.59.59,0,0,1-.47.21.41.41,0,0,1-.3-.12.37.37,0,0,1-.12-.29.59.59,0,0,1,.16-.41.63.63,0,0,1,.39-.21.87.87,0,0,0-.56-.16.8.8,0,0,0-.63.33,2.19,2.19,0,0,0-.37.75l-.49,2a3,3,0,0,0-.12.74.76.76,0,0,0,.16.49.54.54,0,0,0,.43.2,1.2,1.2,0,0,0,.93-.46,2.32,2.32,0,0,0,.55-1,.08.08,0,0,1,.09-.06h.13a.08.08,0,0,1,.07,0,.09.09,0,0,1,0,.07,0,0,0,0,1,0,0,2.46,2.46,0,0,1-.67,1.19,1.57,1.57,0,0,1-1.14.52,1.34,1.34,0,0,1-.74-.22,1.16,1.16,0,0,1-.47-.6,1.77,1.77,0,0,1-.49.57,1,1,0,0,1-.66.25,1.46,1.46,0,0,1-.49-.09.83.83,0,0,1-.41-.26.6.6,0,0,1-.16-.44.74.74,0,0,1,.18-.48.6.6,0,0,1,.46-.22.43.43,0,0,1,.31.12.38.38,0,0,1,.13.29.62.62,0,0,1-.16.41A.7.7,0,0,1,586,269.87Z" transform="translate(0 0)"/><path id="Cmr10-29" class="cls-16" d="M593.73,270.11c-.1,0-.15-.05-.15-.14a.11.11,0,0,1,0-.1q2.73-2.67,2.73-7.76t-2.7-7.73a.13.13,0,0,1-.07-.13.14.14,0,0,1,0-.1.13.13,0,0,1,.1,0h.14a.11.11,0,0,1,.08,0,7.82,7.82,0,0,1,1.92,2.2,10.26,10.26,0,0,1,1.12,2.77,13.09,13.09,0,0,1,.35,3,12.75,12.75,0,0,1-.19,2.23,11.24,11.24,0,0,1-.61,2.16,9.09,9.09,0,0,1-1.06,2,7.51,7.51,0,0,1-1.53,1.61.11.11,0,0,1-.08,0Z" transform="translate(0 0)"/></g><g id="text_6" data-name="text 6"><path id="Cmmi10-b9-3" data-name="Cmmi10-b9" class="cls-17" d="M7.2,191.76a.37.37,0,0,1,0-.14L9.86,181a.81.81,0,0,1,.29-.41.72.72,0,0,1,.47-.16.55.55,0,0,1,.39.14.47.47,0,0,1,.16.36s0,.06,0,.08,0,.05,0,.07l-1.07,4.21a6.19,6.19,0,0,0-.17,1.29,1.81,1.81,0,0,0,.31,1.1,1.12,1.12,0,0,0,1,.43,2.8,2.8,0,0,0,2.31-1.63v-.06l1.3-5.22a.81.81,0,0,1,.76-.58.57.57,0,0,1,.37.14.48.48,0,0,1,.17.37.37.37,0,0,1,0,.14l-1.29,5.19a3.53,3.53,0,0,0-.14.88c0,.51.18.77.53.77s.66-.23.85-.69a10.29,10.29,0,0,0,.5-1.68.14.14,0,0,1,.15-.11h.21a.14.14,0,0,1,.11.06.16.16,0,0,1,.05.12,10.67,10.67,0,0,1-.69,2,1.27,1.27,0,0,1-1.21.76,1.73,1.73,0,0,1-1.06-.35,1.53,1.53,0,0,1-.6-.92,3.69,3.69,0,0,1-1.06.91,2.41,2.41,0,0,1-1.26.36,2.73,2.73,0,0,1-1.77-.53l-.92,3.64a.65.65,0,0,1-.26.41.81.81,0,0,1-.47.16.6.6,0,0,1-.39-.14A.44.44,0,0,1,7.2,191.76Z" transform="translate(0 0)"/><path id="Cmmi10-79-3" data-name="Cmmi10-79" class="cls-17" d="M18.6,193.24a1,1,0,0,0,.92.45,1.44,1.44,0,0,0,1-.42,3.22,3.22,0,0,0,.71-1,7.5,7.5,0,0,0,.41-1.21,1.75,1.75,0,0,1-1.21.53,1.84,1.84,0,0,1-.85-.18,1.23,1.23,0,0,1-.55-.51,1.75,1.75,0,0,1-.19-.83,3.59,3.59,0,0,1,.11-.84c.08-.29.18-.62.31-1s.25-.66.35-.93a2.35,2.35,0,0,0,.17-.75c0-.25-.1-.38-.28-.38a1,1,0,0,0-.82.51,3.78,3.78,0,0,0-.48,1.15.09.09,0,0,1-.1.08H18a.1.1,0,0,1-.11-.11v0a4.09,4.09,0,0,1,.63-1.33,1.24,1.24,0,0,1,1.05-.58,1,1,0,0,1,.76.29,1,1,0,0,1,.32.75,1.28,1.28,0,0,1-.11.49l-.25.68c-.13.34-.23.62-.3.85s-.13.45-.18.67a3.49,3.49,0,0,0-.06.65,1.39,1.39,0,0,0,.17.7.61.61,0,0,0,.57.29,1.7,1.7,0,0,0,1.4-1l1-3.88a.55.55,0,0,1,.19-.29.56.56,0,0,1,.34-.12.35.35,0,0,1,.26.1.32.32,0,0,1,.12.26s0,.08,0,.1l-1.25,5a3.67,3.67,0,0,1-.61,1.24,3.59,3.59,0,0,1-1.07.95,2.58,2.58,0,0,1-1.3.36,1.68,1.68,0,0,1-.65-.13,1.15,1.15,0,0,1-.51-.38.88.88,0,0,1-.2-.59.92.92,0,0,1,.2-.59.67.67,0,0,1,.54-.26.54.54,0,0,1,.35.13.42.42,0,0,1,.13.33.73.73,0,0,1-.72.72h0Z" transform="translate(0 0)"/></g><g id="line2d_11" data-name="line2d 11"><g class="cls-3"><path id="m957645b4bd" class="cls-18" d="M380.43,191.83a4,4,0,1,0-2.83-1.17A4,4,0,0,0,380.43,191.83Z" transform="translate(0 0)"/></g></g></g></g></svg>